<mxfile host="app.diagrams.net" modified="2023-11-04T14:14:36.017Z" agent="Mozilla/5.0 (Windows NT 10.0; Win64; x64) AppleWebKit/537.36 (KHTML, like Gecko) Chrome/118.0.0.0 Safari/537.36" etag="bYsih3iH2n5r8upL8yc4" version="22.0.8" type="github">
  <diagram name="Page-1" id="8NsugojZ8bA-cafjpH9d">
    <mxGraphModel dx="1050" dy="585" grid="1" gridSize="10" guides="1" tooltips="1" connect="1" arrows="1" fold="1" page="1" pageScale="1" pageWidth="850" pageHeight="1100" math="0" shadow="0">
      <root>
        <mxCell id="0" />
        <mxCell id="1" parent="0" />
        <mxCell id="PJQUIRJuqjllULaBDUKF-1" value="Digi-Saka" style="ellipse;whiteSpace=wrap;html=1;fillColor=#d5e8d4;strokeColor=#82b366;" vertex="1" parent="1">
          <mxGeometry x="90" y="245" width="120" height="80" as="geometry" />
        </mxCell>
        <mxCell id="PJQUIRJuqjllULaBDUKF-2" value="TanodTractor" style="ellipse;whiteSpace=wrap;html=1;fillColor=#d5e8d4;strokeColor=#82b366;" vertex="1" parent="1">
          <mxGeometry x="250" y="170" width="120" height="80" as="geometry" />
        </mxCell>
        <mxCell id="PJQUIRJuqjllULaBDUKF-3" value="" style="shape=image;verticalLabelPosition=bottom;labelBackgroundColor=default;verticalAlign=top;aspect=fixed;imageAspect=0;image=data:image/png,iVBORw0KGgoAAAANSUhEUgAAAZwAAABnCAYAAAA0Y/RXAAAAAXNSR0IArs4c6QAAAARnQU1BAACxjwv8YQUAAAAJcEhZcwAAFxEAABcRAcom8z8AAK7ySURBVHhe7H0FWJTZ+zaNtJR0d3d3d3fDEMMQQzc4SiOgYmMhNliIiC12d69rYXeuLe/znTOO/tfVtdbddX/f3Nf1XBPnvKff5z7PSRYmmGCCCSaYYIIJJphgggkmmGCCCSaYYIIJJphgggkmmGCCCSaYYIKJ/ywAgBUJ7wk4wcX4iwkmmGCCCSZ+LADOC706WWH/YD/F6e7ZNkHG30wwwQQTTDDx4zA4uED42cHsuEc7I+ff3hxQfrc/hkk4TDDBBBNM/FgAAMfDMzWel7o1tt7ot9n18HRlNJwIYw6pMcEEE0ww8WNB7E6yeLjacOXgAjG4tES9gyAuyzCcmGCCCSaYYOLH4PGJZu1fl+u2n5gjBIPLNJ5d77MkM5yYYIIJJphg4seAuDFdac8Kl+lLZss/nDRWFI6t8d3x/FqdG8OZCSaYYIIJJv46iOc1SsQO+4nt7Rr3A0eKQUiJxLOBNbGzANYZMrwwwQQTTDDBxF8DcZcsM7Tbs37zfNXH/uXKwB8vBb4lMo+29IVMJIjlWgxvTDDBBBNMMPH9IO6QBF7scS3fvUj3blSVAgyLNgSJZH1IrlZ8fHB96CSCWKjD8MoEE0wwwQQT3weAE1zEQY/8nYv1B9OrFUAk2QBYwh1BLsMIyHWKjw+vD5nMJBwmmGCCCSb+EgDShIiTwcm7uzTPFDcpgGiKDrAkOQBLvDvIZxlAWi22cH4uwgEANoIgBJHwMP5i4gvAZQXQJ0ncpX3Vxl18lBFxvUKBuDdFF30fzvibCSaYYOL7QBB7BB8fCQk+tsLoeGGdDEinKgNLig2wZDoCS7LzT0k4xOM28TeHUqJeHInJv7wp2J7x978GrJgZX78beIPts5PNCnf3xGg/3RMj+yM316KwuYhjaaZPtzhmPBjwrHu88+vKDD3HdnWzZ8KTfUHTX+yNyidujtH/EXn9r+PBxQ7Fy7vI5uc3eKkPDDhwMP5m4ndA7YQTdXD4Gjd0C7lMLBUd09ctOXH9QmnqyvESOQMdw992foCd4Z2J/1/w+k6Ty+F17j0ltZKvNdK1kGVjBSzZ5sBCtQaWVAeQp+q/JZy1PwfhAAxwPNkdGXt1lcWF2+uNHpzs0qpgOP2juHjx4rCHl7tETp/uEQDopr84ADQOgsjmJog8HuJGMx9BIMGffybv3C/PEHlyrtn51pbgsbc3ec9/fiQlmbhaKkqP6C8Av9DE5VCe3wanuV9cbdd9foH4g2s9+ndvb/AkMbx8EUe7dOov9Gr9dqxL58HV7THTibsdljiPDOefApgECaKN+4My/ZHyLszTRQKPjpZb3tiRPP7Klui9F7aE1Z/9F455Qvllc6DRhvm203hpAwM/BeENoHRY5oXyxMyrlcpdNtE4c0GtB2lKWaRheXiKXL5XjkdzRqXfWGqNRXVchUF1dJp7a3qIZ0uGiy4tRN+kJUostDWPZwB1uhjB/WXgNoHTlNBBG2ZCS+OlS5ovr9QPEpxXHHZ2fxu3Z1s2d/uBA5w4Tkb034yw7m52XKe4HGg02v9uJ+bu9sCyxfOtHuvmqgJbrCkiGTtgz0WfVAu6pSOfrftTWTjEqZzgoysdD6/rUITDy42eX13vXsBw+seAemcCN441hF3clVj+6/YUepnAiQx+4kS8P7E7OB/2xTUSR7KnE0eyZhBHMtHn7+QQQ+i/kZ+jWVNvbg7sPNatv/vCIon7V3v0z706W5VLPNwlQo/sO4F7kMTDcR4vt7g0z51hunv8eNnfeqeJw4W1Ln33Do62Ynj7Im6tMSjaPF/lUc04WaieoHd3R4/TeuJMZC7ABmWGl38V6CXnIm6UWsCphFLiaPpU4nDWrPdl/C3yqTqi/4/rEcmhtGmDa1zmHZ2vtPPsQtkHg31Or67tSZ989+zXDU/+KKB6FaStmOpoWhpeZlgRNdZjckHwAaTsGM7/OLCSXXVot1rElNIwzdLgOsEc1+W8VMedAmlmR4Ri9X7hjNK6yB6vd02IbHFHhGz5gJdkfJsrVneQJ9Hg1DCyySGuLPPtotkOfWZ1iWOSFjaGNu/sU2AE/ZdQv7xTlDSTFmhXm1ylVRE+VqMyZJxCgc8EmRyPCXJ5Xt8tMrmeE/GnZlFgs0N9cpVrC6XQpCE2L2hmacz4nb1mD75j6BmXof/YXFNzWny5dV1SvfPYLDuG0/8WUEbZrvTZtkycaQ6C2YhkkHXDmmkFbJhssm2BhWQP8pl6Pw3hEBfiHLatcNxUM0EV4svFieVdbrtfX6X5M5z/MRD73UKJvS7bL61x2n+sz9YElSPn6+OJwYeXGqyfP1v3/MQZlg8757nA3HmuMGeuCxLn34kLdM5Dn0imd7jA2HbHoY5ZBnB8iRRc7pZ+cGOt/TTi8gRzpFi+y4pAz/ERd6hmxD6/3MOrHdbOnKH7xK9MDkKrZGHedJ2zF/ZnBKD0DmN4/yKIPYbJ82dqntPLVQa9bE0oatSFHUsNf/1tm9NU4kqWDwpLiOH1XwFxMjHg3HrH7vmdJpdndKCynOsOnR+U9/cLvZ7QZ/tsF6ib7EjMmaUDJ7vF4fIS2UfX1rnMvXWg3ANZt//ouYI+C6pNzOpjl0klG1+ViNF4qpvj0NPcP9vse9vL9wK3s7SucVZ6I0NzFDJs50hRbI8Mz3YmBAo9gJ9sDQIppjclUy1OK+e6HpKlOu/hIhkPcCborxdPtx6Qz3I4IJFhc14wy+q+cKEjSFX5gGyuK8ilmh6WSNKeoVjlk5baO9kMta3vLlv/qWXado2kecr5rtdFs21ei5R6glipN4iVoE+6eP0lES/2AulCr5cyhV6PxHKd70lRbc/IkQxXiUfrtKoXBGRELx7r+hBAmJGczwLlk92hITZRimp3RbbE/b58uW8Rw+l/CyijHIP9jjUtU82GxPIQ4ZAtgTUbkQ4eTstyRATkjAjn35/DwRUCg9Emt9bb9JU3qb6WIomATobMm2XLg9bC67GuDG//COBioeGlpRLrrq+SGzq10mbb+d2F+sSVZovjaxz7qxrk3jgUyaEyUwaVbEVQzZZniAIS/FsB1KhyoE5VAKV0JRBOlAXVdFHIrxWFzR1K9x7vCB1PEFv0GFF9E/DLSTxsVX1zIDrxyibHRevn6tyoaFAEfaoiCCQpQUS18fNja/wWwekERcYjXwXYo522uFPnonK+CbBE24FYnAEkjZSD7hmq8Ot6x+1vTiWmEHdTZFH8/2gvG4DGRgymmV7ps1w/eYoWGGcrgTRZFRRQ2avRy/trBdfLHwX9j+pIjaoEChQlGJ4kCzIpIyBjlBhs6VS+/tu+8InEkxn6jKT8Y8BlrDwylCyYaf2KO14ZWH35QDhe41Zge3HjxMEd0gxvfytwO0tc0KTm3pJKMi7z7xVJt3zKHas9xBOre4crw/68CNV9q1qm2xSzkvAC6qLW6EWntvm2bFvh4ticY+HUQDaYvGWZ2aRdKz3j2mkks9q4CjVayEzZEu9tAknGv/IFy94RiFYZEs+yeWZY7r/Mc2R0mOvEou/Kl2l9qplqmf92vmRt4EjWfMZX5HqJN9/5FF+u40kB/Jnn9F0igIQXCXe+4yn2DIvT7CmmZ5FcHBaveU0gTO6hULQWIZ3lTBhWBO9yqonMdmrLVkFl9tkhMuxuMjowiy1RE1hzTYCdal7LcPrfAsoo2+Bqh9HNU0zfiOQYAUsasmwyrYE1B8/j2ANLoiPIZyALp+bfJRzidq7x7S1OHZPHyzw2y1QHlnANsMmRGdqyyncPPK4LZHj72wHHsjSvr7GdP2ui+IvGcXJPdm1OXEjcXRh6fZ35hKkT5Z+rUw1hGMkSWJJROZKQgk7WR6KDxBD9RoSebACsaXgFIPodZoxEDYLKJWDtLIVbt3aG1hJXezRwnTCi+2qgZ4bBwwmuT3cHzdo9V+lyQ7P0U4cCVZBINAb2KDOwK9KFSbOsz746mpMLsOKbTH5ih0Hqkk6DCwalKL3JqBMS6whCyaagnasB+fWyr3ct0rxA7PGeTtwc7YJ6vf/YikHi1xCdZ5ttl7VNVHlpnKMFHHGovSagdpuCyj0VpfVbBeWJhWT+9vPdf0lmwBKFPmPVIKRMArqnq168vS2aRtyeqobK/B9fPLHwzDZ9nSLfOVwxWiBMsXjNm2r6iotiBpIlHkdVa8MtGd7+NuA8Fywc66xHC5nPlaR1kydE8oVgnPYz5SK/Xa5N5JFeUwq8TKtJGhZUP4mw9hKhawC82PJCz+H5DXq7xp9IuLpPDPBHTykVNq6NkZKv8FPyak539h+XOVK/PGAXf5zum2HBEs9EotV/1SkNnBC/sO6byd2+Jd9IuzJ0A1+SNoilGe4On0uLlKT5a3PlOGmo00L05ar9dL5XJJAoVQfoadLCjZVLfG0Vi/z93VuS0kInUttMRkXsF0wxfcMbLPV6eKTSLbVS/+7w+TWfXaSDyoPDpDYqiy3FmGAtsAHOPIdRDKf/LaCMsmLCaaETDlKCqb8nHDtEOA7/OuEQT+vNrm9xnj53ssJ9h3wlGBZtBVyxRuBTLEfs6fc5DPdGhzG8/q0gbibr39/oMGvcBMVHlvky4D/S8OmtLf4niAMeWxdMV75qW6SCFJQDUlrOwEJBZUexBZYMZClSbIAlHf1OR78zkaQhP7HWIIJehIIGFdi4UP/c410h5fB8wXfNiRCXk0WI3W75p3pNtrZOUHkYPUoJ9LK1UN0h5RntBCwxthBQrgpd8wyOEldHJRHE3W+acyB2GKcumWt43rzCENhxfnD6k5Fyj7MC+TR9iKWpQftUtYenl2ltIQ4HFCMLTY3x6N8Ggpin/Xhv0PjlMxSfuhWjco9DeU1FeaWgtGWgss5A6ftayUT1k2EJ7GmoblJQ3aUjyUTh4HxGmyHLRg3y6xRg4zzD8ze3hdLgwaJvshB/JFxmFmbL5thfYfeTuq9R7DPZui1/mijF+jZ3mPwjqxKvTKTc/7b5pC7UmXBqpcSrJpuu5Y9WeM2RpgUaOTb7TIp9im3G5TjuuDP4ly2s0wQh7T+tzEkt07lCJt1sr3CiNvBHKD4RJ1uudJyY48Hw9lVwn1BiYDAyvJ8/SRckycYrUNn8kLmhTwHrURS+wMDDW6qhc2ucxSmW2bKZFuskU/RBKErljUyuy3r18RkuDO8fAROOaV1sJjvZ/DV7oQMMK3KpZDj9b+FnJhyUNnZ43K55e5fvlCWzNO555MkAF7Ye4j2BP8UQ/EoViD1r/A7Dw7+fcIjbKer3djhMWjFL84VVtgLq9epCXJMlPFtvCCeXqoB/OVLwcUgZJzOUXhZSYtnoN54Hy3IB1kwnYMOKjYKHKW1ALVsbKscpwuk+vXPE0dAK1FhHMKL6Zrw8lWl8vUf/8PzpcqCbIYN6+aiHj+qNheyKlKcrsKZagRZVBhona19/eoIyBn6bJMl49KvwjnDMyhHhpKP2kW4DrLhtkFFeE1EcCeZgmqMMtBY5WL3Q4PK1nZ6txJlgG4DBrxq//lYAPBa7vDe2ctVckxsB+fLAH48skBSUFioqXyyZmERQOX+tZNmj+kG9StQpYKOTjRvKIyq/eBNQSVeAsnpxONqtdYo4EF0GsP1fWyix4dReUZlc+4UC2cbAG61xzr0m1nrZuVO6WmlWKzldeV9o57lszNiwwJbh/Ycic+8GUav6+CTFDOujQglqwBcjf1eWarOE2jslBL2nvAxvPwzofeALmtcQpJLnslA0UukOT7gCSGZYb/CZkPvVw+d0wqkKX4MJZ0SqUd/CY9v+0SX9pM0dLjrlfgv4Q+Ve8sVrgEa++7wJW7uUUBo+GsFA/70lnDQzRDj2MKzQpYrh9PMBFyLA9y3Jw8/8tITzYJzi4/2xLcs7tK+FlsoDe6Lp2x5oqhcIpJqAb6kisbvPex9xqzKY8cjfAuIOTfq33W7jVs/TvBdYrAC8UabAmmQP2eOMiE1zVSCsUh5ZEUjJx6G04V4ytmTI+BORIxYyUoBkpMBSbYAtyRo0s7SgulXuzYWVur8QJxIKCOK2FCOqbwZcO8B7c1dy9ILJShcDK9XoVge9p5+F6o6KBM/DIauEPU0dyC1GxNn1/ttfniLpMh7/KmDC6Z5rcN6w1BDYyNjCcUSEg5Q0fZ4P5w0RKrJ4uFOMwLNUCWZNUng02GfW//xwdBpxa5IqamM/ZG6H3s4vdgwnLo9KWrPAaF98sSRwRyPLJhblEaeLToa4vBHp4HpIw5/vvn9OMHmifOBPbJmS7YA9yQQUyApQ0SgxdGSx5kniJCWdIG58d6fgr+IiIB20bGqQWKTyYb54lSHlKv815tOzlLCbcZ5TEXewzCshsimhUBVcisrpm4dkP4fYdXP5rOtIqQppFme4AyVgeIrBPaMx8S3jtyzFw4o/NK7fA4dduX6RlkddUrOov/QNrkDpNyPSLVeHz841Zul+uw3hc8CEo8+wcKTSzTbMPLjBCoX5j+37we3VdkqBiUqxxypufwlCNsngcsj0qnLa2T0fWaHI73+HcM6ePcv98uYSfeJx3zcfrIkL5WckHJQuzsf7g0J3zFM7SxqlCkJIAdB7sXioA/XchdKtwL9U4/W2bue1cD7rb1s0QDylSRMHQmtXd6pcja+SA4FElI5YexDNsoXIWn3Ib1AGhQxl1Ms3AIEMCxDINqWLUJYxCKNyE87QBeFMPeAjmwJfsinoZarAxImqMLjaeBdxNCgUb2BlRPVdgMFc5XP9/i05jZr3lKhGKB1I+VIQGaD6Y82xRKSAFC5KKwvJCgJqLWH1AvNLt3dHeTMe/yoQu7TJi2frXFQpQJYEUsYs6Th8G2DPtQEORDrs2JpDcbIkOQJfkhWY5GhDbq3si01z5C483eI8Fx7+mEUdBHGZhzia5DXYb7t5ymTlF3qZysBOsgXuNEsQoWiCeLo6Km8dGJ6hD6IUHRAna6D/8W8D9L/+Z8SA7gc/x48++VI1wDBLGsa3ycDJHtPDb07kpKIOnRgjGf8KwrrHy9u2pHUKhsk+Fw2V/SWmk5ZBO9HNj91MmhK9pamO13njVUAmSW/xmgun8TzgD+nJ006c4HJpyyHJk0wOc/uLA2uI3G2JXPvioP42WYaXvx20tXNV3SrDR4sFyV/jCZB6oVrmu9CwrUCb4fyneG/hJGuDdIbxurn711mgcvnbCPJT6EYE5zo+w5szUuUkF8WYEC3w3uI+g6bKcH6P/xThnDjRzfXgWCXp3tGRbTcPjw46cqSZj+H0RfyshEMQXeIX+x0rJjeLPzPO1XlrPWThYRPUk0W90eEZiHAqdV4NLHboIU6S/paTBgB2Kz44kFA0MFd3MLlMAUTi9d5Omqc7gGC2JfiNMoLWSfpQN94AKscbvamdbEbUTrEeqp1kQTRMNCIaJhgR9ZPMhuonm7+pbjOHxjYz6Jyh++piv/l64nQUHor4y70t4rifzfEVdlu8adqvhpHxZDmyPnD9oXJ6J3RrB5GBRbEpjJ+oc//irvgygtgowQjiiyB2qZFXzdG8ZFKECC0JhZViC6y5VsCebwscOYhwUFlgYmOloPrBFmiSJchkaEM0TRVax6s8P7xcfz2xz7OQeDXTlBHkd4F42iR9d1sgbel0zXtV45WB0qAJbVP0YdJ0Q2iabPxk1ATT2/UTjF42TjAAJETTRKOhBlT+dZPMh+o/K6iOGFLTZozqTRdmTNN5eW6dw07iNDUd1dO/fqRP6IQsZ4lU43M8KVogkqS3ovvABnn87mK3zA2L1O2aUhbw+4k8kYxSHYztaqYmDHR89bL3PwMKf1jFqqmOamnmA8iqAs5IpdvC6RYlhm1Jf6mT9D1YdPG0ol6++0yxGE0QCVL7zaMsMvNL9fKecFK0QTLDaG33sc14+8I/SjgY7ec3CClWBS7go1oAe6TaoMfoxIDLf1hcg9L13yEcjJt7cqKubYnbeXmdz+a72xPdUAa+Spkhfz8p4cxVOrzKraG4XvGRZg7qWZOQMsPzIVSUrjRbGJ5pDv4jEeF0O/XC6WRHxmM/DLj83pzKTDjYY3eaUikJEvH6wBKPlCl9mAr36A0hpNZo6MBy+2svN9n3DG2ynvl0g23Hk81us59usO94sd6y4+1vj9lPBrxn3VtrP+/ROsvFxC636cSvaZ6MaP4ynm13C1u/wPiGBZ5DIiFCyHg7H8GKrBo8z8JKTy+SZFtEAgaQVq/z/MyWkKXE09qvXtH0aot22oml2hcbx+uCZb4pcCbjYStUDxkoDioWFB/9Ewm2rLKQeyqqK2TtqFBUoKpOErbO1713Y5tHJ3GKHEQQE79rchke5ipf2BjQWt6qfydolBZUtmrA4Epl1C8wBuJg4OnXR1JnPNvsOuHZWjNUF/Ydjzd7zsaC6+DxV8qTDY4dTzdaL3iy1bv95ZmaCIIg/tLm2x+BhYMHpT2ro2q4PIV+E6aYPNJsSf5AGaG2yp/QXhYoGCp3WjBNF9SrAlfGd9X+5Wvgqzct0bGoCl04zEf4GXes8n3N+ugJDcf6/pZ5ua+B2zyauxLFfj+nvRDo5rhvKNq75E8n4TH+SDgLD643RWX1jxNO3uVdPP4dlRUyZNOHAoGSN4MbU4vPPyE+6PChdP23COe3S2ukLveajTs/X+r+w/XOncT9r9sj8LMSDt7FfmBTZGNeo9YjNbw/KNmBni66hZNm97cTDlY0t1ebTpg7VZFQzVZF5YDizUCEk43IJh0p1VR1iKzXe3lmo/9q4kKsBVx0GP5WAhifv/+N5JitMHHCUoT+HX7MUSRY0Zxa51E2cbL2a61CXVRGZvQ6oxMOrkNEjHTSwfWYbgtsKcZgW6ZH7O11OgUXQr96ocXNtWapT9dpn7/fpwTLO9TBrVwfeFJQnSSiNoLnqhChvSUda2DLsQA2qimKG7UjTH6p9iCaqgcehdIwY7zki197jI6/OBRLI+5V63zrhkmCaJQ9vzV8dFGL6XUNqiEoINKvGqsNl1abwJu9gQeIKzWpxIMaJXiQMBxOOPATZz0F35f/t8igjzBcRGH8hU2HPxJBXc0+uqU+h4Z5CoNult2a0fv7nBhO7+HWnD5CvNB1BW+WMfDFqJ2OmJztTvsLyrXr8mUey4rQbK5gxWccQRKglG6xcP65/d+1P+xHIQ0OcOrmeZC5QlSeCGZZvpat8qsF2p/n8WchnBOoHeV1T4xUSDE6LhQqdy90fFbjpusXPlgx958jHIxrKw2jLi1WvH93mcL9R5ucGgni/heXAb4jnNapZm/E8vCQDOqd/hQWzh6lg1viG/KadBDh4PkbRDh4LgIptr+bcHCZEMRRjf09DotHj1cDQYoOKhc8J4LTYE9PC1uyBiIcnRdnNoUswYqQ8eg/CoAFJttWuSzIqpYHqQxkgeGhLjrhoPqjEw4iGWQVsmchIsBll2oGasUGsGKB5fNnewPx5PJXKdQray1Sn/Srn4d14jC0VRb2LVOHyiYt0MxGcWIixsvAMx0R0VjST6hgy0bx4eG8HFRXeBUYXlBAMgTjbG1Iq9aAng6ty68GrHqIC1mpiNi/2trBltHlnRFVo8YZXNPJRZ2jaBuQRpaWX4UutExSv3twmfkA8UsyFeXrX51v+ZHAbVGqyLNEINvqFQ9JD3QL3UvvfmLp8wDqxAQvqMuRTjY8z+Mt+syxMbGdvGXBdy9PD13Z6qme4biLw1EIVFMtz0S3V8ThtDCc/zX4zKky0Sjz28ufogWiMWr91fMn6qF0fXI052chHBQnR8vGLjdlisU2vkiFh061ceNrNi1XYTjTgf385wjnwdEi40vrPNasmSpC7Jgvc+HS1ogqgjj/2bF63IjeE07uz0M4ACsUD68PqS9u0X6kiXe4430fOD3/GOFs0du+ymdxyVh9EM5Eyi0NlQkVW1lOqIxckbWgDVF12q/OrPdfRZwlf3EC8+8Acbcwfs1S6yNuhVLAk2yE0uXwdijtnXWDCQd9cmRaAju93GxAClkfTRP04HiP/TTi7ryvIsrHA2apexZrn5/XrgjbVyjB0DZleLRJCebMUYOgKgMQRWXDkozqht528LCaI93iYc/G5IN+ZyFCwqv04myBBxFPcIUqTJ+qDvt6jI8O7fGoJR6Wm3+NIiCIVpmrO0JHNrTpXLMsNACWWBRmAhYT0MtWg/x6deieY3L519V2U4gTMf4EcVWO8eh/EthCwcNaYtFay9mjFEGqyP2ieRvFneH8AXD59Vw4qiGfaNjNGasEMsWe15xnlPgxnL8JKCwuvYbIRuE04zdcnpIvbQoD6zrvn5dnOP+rGHtqq1Roe2mjoKfY8+G+0g88x2fRKH1TPjnM9zMRzqSdK1xUMmy28EaoPLSpippQunLuBwsHsJ//HOEQxF2Z47sLKtOrZW4UNA6HOdO0Lz7Yk5RLPJn7p8s5cQX8lHM4z5oVjvV71lWN13moU4gIJwn10P8hwsEgXmxQP9TrOq8GKWfRbBR/GrYesIWDJN0JWFO1ILZO+82v6336iV/j/5Ey+SOGDrqM6p5n/ECVqoqsG1RvZDx/g+dQkNAVPSYcK2ThYMJB9ZnmAIKIFCLK5aBnjuFauEpzRfX/xbk+YrdeaudsowsmJSbgWm4As2drwt0dqgD7lODYShXIa9YGFWRxDMMnKZBQPeF9SMjK4chG8eLhNlxuOH68DykNdRxIFiBDUYOs0RKwYobyw/Mb3RYTxxNCiMvxMig9f9qLfkc49W2618wLEOEkorhQW6VvpkXtgzvRGBxzVWBcqypxsMf+yL39SaOIa+XGBHFagBHEfwrZZ89y247PKhYj6V7l9hN/ZDUysjVraxd9KfSfQbrUs3BYjsUz9gRtUMtzrx438G2nSmB9sPjIgO6IeO0+9gQVEKZYnTUYHW3DcP7XgdLHVbFwrLOMh9xG+TijO/bj0mcGLav95LaCn4hwOKtWTg9QTDbdzx+scN+zPqVl7pE9H9Qj8vNfJBxC5Mj+MkrYSOVLculSEFCqBjsX6A3C4eA0lCH6Eso/Amd0sN+5pmWKCZNwfgd4vl35cK/TnNqJ+iCGCQcPqb3byImXBadq/m2Eg+qEFYDls8MXcK2d91av3qxJU/UI3nRjuiJ/u0jAAgmyNLJQWhHZsNBXkGHlj74jQuJINgejLEno7DA/T1wsKiCI/i8e+Ejs0iAv6NC5JJdjApwx1qCOSK12igE8WacCQ7sU4eZaFeiaqQ5+ldoglIosLTy3g+oID4HS9+sgwsHtiRXPf+HjkvBJACmWIEIyBrMcNahqkn96cInhBWK311h8Th3K/ydJ8PeEY1aA2moiCi/LHFhzUX7xsuxkJ+AmWYNali4k0RSIxdOUb9/Z5NxHXMhNwJfOMYL5zyB+TrmMUK5tP0e2ETEsRuu0d2uq05eO7w/oqHNRK3TbzBkwYkgp3WpPyNSqAIbTV6Ht7FnB1Hn1GRIRKueFQuWeuLakzaz4Qac3/yh0IBKNHkONjptaWkdd2hpdsqH9k4fH/iyEg8qUO7JjVKp0ov45gYARt0LHZZad+O23D9oj1sP/RcIRP3sgPyezXmVwRJIqCMcZALVBGU6t0j0G+9wx6Xw0Zo8rYLDfsZpp4XwIgtijdGiVU8f/Ec7bQ03fEg5S7D+YcHA9EMRKnce7ApIf7PBOJK7P0EL/fXLDJK5H4nKr+fYu0435Y3SBjWSG0mQDbHnIosnFk/eojDJQPVLwIgKUZir6Hy+2wDvw06xAOF0Jxs4yfXFja+Bc4kbsF5fQY8JZ0al9Sa8ILxRAYcQ4ggLZClJH60PfAi14vUUFCGTxHFlrAGOm6oNJnjawxOMl1KisMhHZoPSwIguHHREgB/pkw3M79LkwJxSeJWhmakNanQZ0ztC4db7XZDmcjk5D5f/RcB+ew7m6Payqrk3/mlkhIlm8RDsTESwKjxVbnhl4Ayj6TLIE8RRd8ChSgYYW+Vcne9SPEHtcphBPZrrgcmYE91MDpVMob1FdtGCY/CW+RE3QKA/qilk29osbhFt37RIxL/LNYwuUfiqcbf1ctzquGYX11cvvXWfSpE2bEhYMT9R9KR6ucmbkskkxNwjiq7dZ/FMYBBDe+ey6wrazh8T/LH8/C+HItubxGDQmTRDOsnzKGSJ7MWQcJRil44Nl6+j3f5FwfpO6dDCvZFSL0hVDfMBlqA2IJOtC7URFONurdZg4FhoDcO2jYygGV9uNYhLOh/g04WALB6XhnYVTrz10boPvWuJULH3nPr6EjbiQYUHsCY17vD0wjdgfFf9md1gssS86jtgfmYB/v9wZEUfsQ0L/jWRPRNzj/UmhR7YmJB9d7dx+daXKuRt9RtteXJzihToQn7Q+AAaGE79Ss2bPNjnjVqIBbPiASYoFIhxUb8iCYKfYgGiWKUjnmyCthRU9KjNkXbDmIiWfaQdsZEMobtOG3QsNthKXaj47RINBbNcgr+rUuWRdbgYc+OwxElLqcagc4qzBIc8UOmdpwe0B7WfEcaejFwa8d7RMNr4eMUoNtPB5bsmIGFJR/OkOwIEsHg66BYZJB6UjBxEO3ruDh8YSDMGxUB3qW9Vg82Ldk/e32Iwhjsda//7FhOcNilcHfJuqWxRv61F10DPo2SwUTi4ePkT5Q9YcWw6ydvDQHU5jvDmopilAWZM0rJij/frEOrdVcDQikXhR/bef9fZXkbN7uZbDOHKvQIjsc/Fg5V8SO+sT8nZ1fdXBqA6tKZYjMu3PCJCNQDbZYtP8o+vxxPpXrYzUaYzTEilwOsCdbwl8ycZb6tZ2aDKc/nP4WQhnzKY5KtLJZltEUNsckeO4M3By8Ucb9P/DhJNfPLJZ6YpRrjJ64dBLl2AHEhQtqG1Tgqt9ekeIY/FBv7+tEWWU/b2FQ2USzjt8DeHE1Gm9Prfeu5c4l4iP+GAnfkk2vzXg3rOl2/rhinmWz9d22d9d121/h/6JBH++E/wby5rFDncXzXe5OrfD4vqGmdJwYYHgi8tdqj2vzo/Hd4F88uUg7lHknu0Nah/dpnlPnqKCLAVsvTCULdkOhiVbgneJPpAb9MG20hJ4KKguKdaIkFDZYcsi2QaCKpVg3lSlY0/PNQR9qhPye2DC6e3UvWRZZgoceBk0PgYGE08y+h5lDp7lBtDdYXj9t+MZRfB6l+vTPdGN+xZpXa1vlX1lnqMMAknYGkFtEZPLu30774bacH1iQkxzArYEBxBL1oHw4hHQNVn6zfV1tn3EuWpvgBN0y5y4X6Nwd8Cnsb1N+p5nsSJwklC+8PAcsuLYss2RFWcO7FQz+ie9nujn1tkCF8kETPJVgdYgS+xfYjD42z6/scSFAgtE3J8cZv63getduzrUXyTT+gFPsj7IJJl3DJw9+tUrIYv3LJP1mpgzWThI7qlkpOpV0uKGyq6Hl7+4nwjFy+rQkODImaJ/nqfcEYYXeSzVby746aybr8XPQDiXHz4UiZ5akCfoM+KaaLTGc8cpufXRn1jkgNL13yWcKkQ4hrlIEWGFgF+6ZAfQytWGpnHyxK1+813EmaD3Gw8BbvFf3eDRiHqlr0Uy8VH66GXFvUUm4XyWcNjTtCCyRuO3X9e6zyGuJsoRxCad85tDO9rGyf8WRFMGkzI9sB2pA3YM+f13utB0wLpKB4yLdenKML9JFvYsVIB76yx67u7Kcr11YtKfKkPiVLjumX7XXeRWvTccyciKwPMlKG30Oku1B4EUC6hvVIH1HcqQ2YisHDIiojQrZOEwhtWS7UEjSwkqWjRu3j1c0AzQ+9kVSB8QTjqKIx2TBqqPTNQ5iTEF80IDaJlocOXUbmokenG4iKeNssThyNTLmx3XL52u9jyuUgZGpOu+rUN8EkEGPosNtTFUl2woHHZsoeTg4TDkhqwWoQRLMKMqw8TJSs8He003E8dTrenpuDGX79kxauzZHosTs6cogWW+IrCmobqht3NkyVFNgRMRDzv9PieUz3fzRfgMu2Qr+r6d6EoV6J6lcPdqn9kO4pfiLIJ48tUnLvxTWHHjtKJhtlPTMJ8Rb+Qy7R/btWbnYjJgOH8R7QCcZSvGuwiFyO3jTdZ8ozQyeJdVe/4XLRUUB69tXWQsV7zyNclCpyGzMeljtWm0n2Iv0vfgZyAc7zHkALlMu0ucEUowPEJjRf3e5eqf2h/13yecHEw4SDnjFUL49NsEazDMUYfJbSpwqs98MXE+1Bw/A3Bx2NV1bnXNk01ei2QZvF3txCScTxMOnojPRGlAPXxOsh6Ejta5c36d33TiZpnL7Z2+lV2zDe7Z5MgDWxwiAXxiMwmVJwkfh4MkBVmPeHiJhD5TELHjzxgkqCHaF42AjklyL072Wi8iTpbYf+6lwIrn4bZQz7WdOpeC63RQOMbASnmrvOmnIKS6gABKY89MZfhtpRhMGKcKYvQrBbBSR3VKn8dxgGHoJUyo1X91ZUvkWuJm3mc39H1AOBREXshaoh+Zg+eHSGZgW24IbVMMrp/dHpEM8PaqY5ROfrhKcX2603PMpm6zU62T1cG7VAW4E/CiAmTppNkjqwSRRC62zN7OPdHndjJckLsnKhcbsC1QganjpV/f2mA7DgZ96Kc0E/dmyxEHY0i/bnBcPne2/t3Ueg1QzsLljTcHI6sJdQbwPqC3VtRba4reZtIRoZEcgSfZFFlk6lA9URXWLTI6+XqHyzi4mYtX6/00ijW0qy1UNdP+NLfTsDem+Z5rGnf20Qn3W7DhwAYhhQLXTkGKEfBFqNyOaKHgUxM+a63M27pGyqLcv4I7Uv6OQpbdvYBJZQW07rfW5X8R7wmHpANS6cZ9G88f/McuzMPtXzbLKUogXnMHV4wiyGbb7LGvivrTZerI//8A4eAlqkjBsOYgJZPqDGwJFmCYrQgLZ+vee7DDtQYrL/zc4Gr7mvHtZkOieDMdc0iNjj8lnAyUjnQ7YE83gaha/QePNtpuJQ57zl3ZoX4kvFwRuJKQhZiClBver4OXB6ejZ/CQFh6CysD/IcHH+ifZgFCyEfhWqMP8Weq3nqyxmElcbTBiRP+nADgheX5bTPm4Zul75oUaKC4rYMvCu/txPFipOoFCgQ1sXWoOsMMIls8yABm8JBn18t+SBCpDuj9T8B2pDzsWm55+stfzs0eEfGjhoDDw9QTYwsFH5qAOigPNCGZMN741uCMoD1lLH2y6RG1Mkvg1P/PqKuPNi2aqXI+jqYFGtgGw4XJCVgdLBrZG3rY3vLqONQeFjxcAJHsAR6wRuBXJws4uw3PPDnu+PxkBt1vi1TSroQNBrQPztI9WNKs8tSvSAmH66QcoTfgeG/rpB3ixxFtrjG5N4fTiskcdseEULYirkoNF0zVenl1v10/sCyERj2jqKOx/tAf8RwxcHBimWuo3RizTDBGFwlPrioBslKZvv8IblVHg/Np0eZLx1WFuAs/sRkYsati//rMdi6UHdyo4j4xs4AlVuC9DtjwfOKk4tf3A2w7EfxF0wqkMW8uPOn0y6WY9iHA/2Gz5I4HbJJLhGSsnqeIL2TRz3EsESSYXuWLVQChcYW9QIwlb/386aoHc/lcIB7149B3f+EWzB65UPRg9WQ8OLTVZhDJJ771c7bNtnDbbAsQw4aQgRcAknD8hHFyOWLGj8kk3B3KT7tDj1Sovb67UeJ5arT3EjVeL0a8GQEJFSh0pTvq5YpmoLPFENv15XA8OIILqIbpSATbP03n42w6XFuJqixxutIzo/xTEsyl2RzdGrSKNVHgpRdFGZYGVqTldobIkOwMfyRw8S7WHtq7wHiROko8OrAga1MvXe8WKbx/NwEoYkw5W6DZgVqgJU8fJPPx1g2c2ehn/dK/KB4RDP84fdWLwkNU7whlpBNMx4WwLyiOIDaKMx96DILp44CLN8OmR6Nojy0xP1TbJvjIvUEdpxfWKCQyTDCact0RGJ58sFA+yErUL9KBrttmb+5s9qIzg6EBlxUY8oY14czg67No6x2Vd0zXuRZbLgWSaHnDiRQipmPTtEOEgiwfVBVuWPXCgusDkTK8L5M6DCE83Wx1GNsu+3r9Y98ajPSEziFs0awDaXz748nuATxZOWDzGRjRaZT1vnBLIF7kfNxib/N17YHY/uq2mQ7GczhUiBaKZNg/V6+JjGU6fxNVnz+TCx1Nr+UMV78mmWJwOn06L/9Iy7G8FbuNI2JFwHAD6LaAc3yu/e/6TnQT3CXkGBiMjVvOnGRHiGWYDmYtbPLwnFUqyJBgM5y/zFP9uofmK8RW4jRAtcpXmzbWTcpteoFSzodO2vGcSyWtS/mTFIp/dvDHa1zhjte5LZzuujpue79F7oPez86Q4H/87Fg5+ibORosOKItUQCtr0YNN8oxUEcYNuYl9bbT9megeTcH6PjwiHftIASgPe25JuBfyZFpDTYgjbF2lBfrMOSCYjpRntivyhcsaWTSoWpJTpFgFKNz7WHw9xovIUS9aE9NHSsGOR7q2XezwaiBuxX1wp9g7EmaTwLctdfnUoVSY48NAcXsDwjkSSXEE5ywSoo6Sfbui2qyQuNzlsWR05JrBY4r4kWQfF70hfmkz3n2IDCoiwcmkyrw6sC+gkiHnGjCg+wseEgzsxuCyQIJJ1rDRAhGN0a3B7aO6nCOcdANrliRPxoWfXOi/sma31pLBOCZRSNYElDhE1bquIoPGKM/YcRKDZiKiTjECrwAC6Om1ePdkSmMMI5gMQxBE++CXa8O4uf9qu5RYn2sbJgQeyijjwkGUSIh18AV3225MP2PDJB/joHbxP6d3Nq4mWoIrad+goNZg4SfX+xTVm64iz8Tn/xK2lf4TtlAZhyxZKy/AYlQcCIZK3PNuyx9TuX/P9dyUhxa4zKiB5eLrpS+54VdCgOrSi//50P9K+5w+VQ8dntfKHyj5QTLM4kLVoHF6++9VLqr8GJx5eFpm0u8eiYMnk4JzF48MKUBzfLhPokr1wbHjBgrF+tSumG87c0fNRh8lnSoGuSU3UMoFsy+ec6UZ3eTMd97KmWa9HFvoalizHdaj9rmOhWiKx+IPg/6z+RLCb5Vr8yZZhsoE1w2w9J9Vm0/Bs6z0j0s1Py+W43tOqCLmqXxIwR4lqH61RGYpXCH7RSvwfIxykIDDhIMXHkW4AxRP0YFuXyVKkVOlnMl3tt2tqZ1o4H+DThIMVuzmwUSxBOscComtMIatBD0RTUVlH6AA/yRh40rSBL00HBJL1QSBFF/jTdEEgTR+40G/OeC1QTlGG4gY52LFQ/Qrs9xoFMO6rrytGjZL16Vb33CVzjZ9qlSBFnWqK6soJpQsRG67fRHswKjKD6ZO1zh9Ypko/DXr9Ug+PynqZa6ZFiJwSbIEtwwopXFTHqC3wphiDd7EysbvH+QRxOzOSHskn8BHhkLEVguoBE06yOThWGX4V4bwDcbfRktjhWH1wmeGe1vE6QwHlmiCaoofSh6wPbLHh43EwIaAyMyrRhpUL7R6/2haawXj8kyCI09LEeRLp+jqzFSvmatwubFQBHbw1IBGFSSeet8TMSt+nhOeNzN6u6kP/08+DS9IDs1xVoLWow8Yu/bN311nNIM5nhOK9bYwo/naETivWk6I67OXN0AehOM19OQub8f0tf2kOJaRnnIVeVeAAt5/wK4VUk6MpK6dGoYb0SUt6/ZVzaoFjyW384bIPFdPND2YsbA790YSz5MJ+i8i2zImqqSaHlbJtjysXuB5Vznf5vOQhycWf7kjcjipm2R9VzLQ9oFLotlejzH+TZpl/s0ZxwEfDhf5Ty7TNamMWCWaZP2HJMATuIhcQrvADEVoACI3C4gtCo72ReP1B8H9fFuGRHsBPcwOOStRxwXdRJakBK9kI5Ip8r5AWtRSitvPV5wT+DxIOfukQ4VCMoGqyARxYggnn7ZEfV1fbNrYzLZwP8BHhpFrTJ7nZssyAHVk3IxDheFUZQWatFhFcoTrkU675MnK0zsvQURpvIkdrDcWO1n0TwxD8PahKbyioSnOooknu9b7FOpeI/T6jCWLWNykzfLXyiT6Xcc0TtUAm1wClCSlm6tvbN/HKL54UQ/BF8Rxe5bqJuJREP9/tt8MJhv3zzE8F1xijukT5SEfKFhMOnidJsQLdPE1YO9/kyYsDbmV/plw+STi4HjDh/H5IbXvQVxEOBp7AJi7mRT4ecF+5cpbmjcw6ZdCnqgFPEl5ogcLFlmKyMRhX6ELPIrsnz79AOBg4/cTTeZbE4fDWX5dpnawfI/XcqUQVpNJw3lF68abQLPw+4NVxeFXbW2sHf2fJQO6JtiCUrAvhFVJ4EQccX2W7/8WRmHxiEPUovmK486+g/+5dwaAJZPKwIMlr/OkGrxRHh86UoqX95aubrwGI+TUkUXj8RlwfjixijZFhM2gDby9u+yOmbO9Tth0V1cwTqfxALtPmTNi0ioQfPaTWeWa3rUtVyNxhXsJXuaIUrnGRdK5yJWl9XhKRxCFJ0LvKnaB7hTdW/RpvrNp9riTNIVaSDrAlG25jTzb5SAf4TCnTNR4VuVQgxeA5d4r+E4Uy/2PqFaGbVcoDN8mX+m35q6JY5j8gXuS2iyfL8jBHqslJHrLZBSGq/R2JPLc72mUBW91ro5qCx5BCwjppXzyH7n+PcHAvON0GOMnGMHKSIZNwvoD/Ixw9hoVjRz8XjD3DElgpVoi4zSF8lA6xc77uw3MbPI6c2Raz4ezWqI1nt4Ts+HVL8O5zAyG7zjIEfz+zOWQ3ctt7bUfY1hf7Y6nEo8yvUszvgBokG0GstV6x2L4nplIWhLB1gy9by8V1jMqEZA9qWVpAG6vy7N4mpx7ilyQL6GZhf3Uhzf7BBoedWc2GwJ6ClHka6tXjYTU8JIasNvFMQ5g4zQDOr7GbDjDwyeGWv4NwMAB6eYkbdbqPD8ZWXlxl/EvnFDnCtVAaeFPxEmpseViBVpkRLF9o9+TVzqAvEg4GnXQel4nDmeSw65vdVm2eo/akuE4elCi6wJaE2jS+5oJiizoNeBEB493AJxXgY3cYw578qSagStUESpXk0LZOlVtD2107iJu0v3WFU2zPJAuL0eFr+LzFhhSSDI8lLRsXj+uc4fzdwERpRYvSHE4y3cFN0kSWk8a2ksWtBgznD2AzniovTrGrY49Sv6eQ7XwpYEIh+UcvGhh4fE0sdjzVzYjilG1SFpBtVhuZblYTQfmijIqgGCOxrYtL9WklZ3mOS58qX+B4mS1RYwhZFX0c2Q4f3e/kOblMX39kRB9/ki4hQTbZmbl0fIhdc5aSCS1MXqsiWOFHiHyFm5JIsauWcWOMZeSs0qjwGRWNBiPDNwkk6t4eFjLivmisxnkTWsSkuEWNn72N+X+LcJBywUtEWciWwJFu+G0WDlJk8pm6kFb7/7mFk4KUEi5LvCyagtOgC7G1WkO31jrsIy4nJBOv6uyIx6PtiAcFzsSdfJeP5EG+CzwsdIUHNY4Ese2bh2nwcmPiegW5Y47lSeMcGeDAy9fTHehDRG8Pr7QDrVxjqByn82r9IqMLnXP0+6onqM+Z3am3Zt0C/etJDQbAhxcw4HkLPJmO6xe1B95UC/oG0f75BmuJo8H2ACYfKZi/i3DegSCWyRInQ8Lv7HCe1bdA/2rVGBnQy9UAlihDkKUawdwOq4dPd/hRGN6/CsiC4iFuFdoQ+0Orj/fb7589WRNCi2WBNwmRGT4lIRmRdaYzei9QGdKXUaOOBF7mja9TwAs/EsxBKkULYkYqwZwZWo+ebPeYDRejDRnB/3DolQYmiKSZP8ZDsSrZDm3LTu3/7rmbP6Jg3Vw+n8mFNWJRqrcE/SXuBk7Jp1F3r/xo/1H6urkj5LKdSzii1G4r5rk88G0vLcRXTDOcfxgGLl4ctuDYMeHtg4PC5+/fFzoPXycHkF+8uAWJSOfx7cHGFYE72CJVnrOmGS/lLfAxYQT/Hu9XqSXrgGyGad+1F4//1lMTcJvr+2WfsnMdyUmV6lAqnmp8gD9GHcRCle+ZjgyZEbp2Bn0ryqfwP0Q4uAeHXii8aZFswRhS+wYLJ9kO5LN0mISDb7nEChbv1Ec9ZHwBGz5L7dyGwF7iesbffrgh3KLxv9jhOrmt3eiJSIYmIhs8n4RXYVkBGyIctnQ7EMuxA9tyG4iuMYPYeiMIrTeGyBojCKoyBP0Sc+DLxavmnFBbwISD6jkdWWqojVgXakL7dJ2TxJFACkDGR8MtnyWcZHNwoM/hfD/hvANBrNAjjoZWnl6ht6NpqtF9m0I9cCzWhLkzzZ5e2+L7wSq1rwVSAhLElZLY15st566cpXqJ2qACVvlaMAyffoCvvKA4oDK0BrZcVI709wR1KrDg8sX7hWLNwKMUb6JVf3p9m0c+VniMoH8Ypu5eo6iRbjuTJVBmiD/L6rDShHQ7htMPwzUATbkI9UW8YYqgWul/0HlO8UfKDytMh5roOM44tWuiRU6vtVqTWlna037KZdHjdvT4G5T472YNU37Bmmy0nKfI66Pry/+48fOfvGIaxcPlPLE8SDjJdB1nkCRIphk9sxgVVoXK+JN7of6jhEMgwilkEI4yIhysFFDPHJEHvfdGRgqGbApVk4yZhPMFfEQ4fzhp4P3hnRt8V8PFhL+154QaIytxrkjt7BLdDeXj9VH+kXWDSS/n7Z0znMhy4cDDQnjvCbJg2JBVypFsDRypyB19ZyOh/yl4eTCWtwd5suIJc7w3KMUBJCjqUD9F/8HLfQFT4FraR5eXfXbRwDesUvsaAJzgJ26N83h8mLJw9ULL+zOnysPmBfrwS597IcPLN4Nefs8nKL05Sa44t8Lo0OzJUo98y5RAkmKI6hGXJa5XTDyoXqmYxK2BHa9kw+WT6IKVBVCrRsDAMtsF8GrdRz3pv4qQjppUlVzHiyz+Ik85otXn8GW5uPKTDbWVy7xsNEo8HFXLPB2+VzRKfBzVit3NZbKcDDgT9SawJGoDJ0nnkWl1CAnfRMlIwnu4NCc7DksxOsdebAM8+Y5dru0l374H6G9G+4F2zuiO0VS1Qu/LrFEayMIxWcpT5PpFwvk3ThowHpvqI0a1vcAVJAaKEaqrZx3ZbNHd3f3RXOl/lHCwhfOOcLCFwySc78VXE84/cB8OPn7oxdmy0J5Oo+ORtaiOUlEa8Eou3DPPQlYr1QzYMYHQJ79RGulLsdF3rEjTUXnhIcBMh7cKFO8hwm0CL5XHCwdwDz/NAAradIbOrzDaQuwK/eBiKIx/knAw0MvHRdwfH/t4i+3eGz0ScK5bFX7tMc9kOH83CGLuCPgl1fX2bq8JO5YYD1Y0KoB6thJ9vw8eYqOXEbZyUBtjQ1YOPmwUL20flmIJbkWq0LPYcSdxqwyv3PphSuvyrl08CkWBMwWyLIdYIuQJ1nCVM2yRWrtYo9X2s0WpHGWPUjnGHvmdEq1xhD1G4yhbhNIBljDVAdZkw3MsyZrAESn/xm50xMLatV0fWTl61TEaYlkOezgzjUAgRX9ry5ZOI0zYDOefAqFdeTyWLakt0nlur1hjtZ+zk827f1bC6bp7WcalMWk8r7fIfeko9StJCxupk058fIbff5Nwnk6VubgloLy6ReWacb4WUgZI4dAJB71E9CG17yccMp1wQif9bISz9f8DwiGIeVK/ncioGjPN7IppsRGqE0wglkgpYqsGWyz4iH6UPkQ4HwiudzoxoDQjksALBtjSLYANbwDNtENEhf7DQ4QpVvhcOFg9U+nXR/tI/qjxf7A66p8aUsPAyo24lmt3tN9x6ua5kue3zhB5c7nXfM/d/bFuDC9/GQQxQ4s4EUA+1Ge9dupU7RcJo1RAAu8HSjBDZcQgYyT4TDa8OpEbvRPWhXrQvcj5EHE1PeFHKS0UzrC63nYH0WitvXzJuqBa5nNHvzJ4vVKG43IxkvlasQSjtWJJJn9BTNfIkG3WKaTbrpdJtV6llO/ZPTzLYj9rvCZIlXneMGlOzWIk5T085tVKWdeQOkViNF6IBsufK1jUnLznE1da/5tIXjheYkR54BLeQidgSzF4zpFp0fWzEg5BENy5HbU+AjGqp4TJxq+Nq+Om+bbnfzSKgNL13yMcuOYqf36V0eiKFq0bevmmf7BwPkM4/TZN0+f8GeE4gEyGLiRWKz7ZvyF0OiKcf+Q8og8JB+UF333yAeFYIMLRxRZOD/ELyZ7x2A/D1xLO+X+CcF4UadzeFT43vdXosXgGPpsNWTOIcOnHtuANn1jxY0sGpZF+NBFeiUYX9F8KrkNrUMrRA6cKDTAoMgQeZAGxkm2AA1tFeDEJyZa+B6VprMKtOwdJ1QSx74Ormf8pwgHYIEScTfbbt8px1agxcs8qGodD+3ila79ujc3ER/owvP0QYMVDPGz0eLHds2PTQq1f8xqUhizy1IAvTR/lD70D+Dgi9O7gfUG8KSbgXKgKyxY57SVuF0X9KKWV0Nct6dBKniQYJnNHLEz+Ydzcmhnj9/d7j1vRYRhXW2QaU19gllhf+t2Cny+d1WwxesFEK8rk0Wa1HZMMTarjSwSyHZ6yZRjBiAyLOf1v75N5n5+Zp08L5CweR5YMVjrHHyj9xKqBtCBhoOOr94r93cCKefTqGTaCFOs9LFnGqPNk9pwry7qLJ9fhpyQcDP+ZRRqcWSY7BYodQK7Ae7lSmd9HCzZwvv57Fs5dH5lzq62qSpv1burkod5aAlYKmDywskQv0EeEw9j4udq24U+PtiE5gxRZD0hVss8Pbgqa+Y8TzjjdhzoFKE34ePvfEY5wphn4jdR5uXGZ61LiWtYPvwIXYJ/y4T7n3934+THhxDDmcP72IbUTUbZHeh33B1TrEqyoJ4zrER+cSVf62Y7AnukIw9KsQSDNBPgphsCXYYzEBHiR4uRDhCBK0YfaVmXY0qkIxU06MAJZOfRVd7k4HBRGsi2MSFWD5Frlp5e2Bi0jfiv/4NQBTDgrPyCct0uJ/29I7R3hfP+QGkHk8RC/JMXv77HbnV2NrzUQhfQazTd7V7gveXg8/m/ZB4NfcniwSPHVqaTMK+ttt86YqPTEp0IOhDO0gBUfU0S3Cp2BL9UM3IvkYUW3027iXk3Ej1JaKrQgY6Q4T3PEK4JkjOrm9p19+P4ffFwLPv4FC9sPFtbQznoro1FR2/jC5EE6SfdYalcz3mvzf3cOIT+Td6/Ul4rV7huWqAFiVIfLmnVRDvh/hpd/Ff3Xz4onzhlZIkrSG6RvtMywfsZFteviybT+aQlHlOYqzZZhvEVopDvIlvhu0KBFfrQhFKXrP2jhwCT+Gztjk+ZO07zsWa5BPzqe3htFSpJ+NhXq9XIghYRXqR1cYraCIE7Q78i43Gc5kn54J+MCNrYMa2CnH1TpBCxxjqCTrQk1DRJPT21wryOItR/0fv8ufNLCybR5m65UexAiG4J3mfLLTat8VhCvmn74qh7ixQ6NQ72u82sQ4Yhiwklh9HgZhMOGCCeyTufVqQ2BK4mLlM+usf8rQA2R68omr/hFU5Vv25ZpIgWPygLXJSabDFS3mQ6gVGwDpDozqGg1gNwWfchp1UefBkBu1IesBh1omKgLx3vtbj3dbHN9xlQ9UEDWEV7ujg91ZaOi/JAdgJ2kB+5VakMHVlifIo74eDCipwO2G6Qt69S7YFZuDOwUFDdejo2fwwScbIYsHCNoR4RzkW7h7PrivSt/BEHslyIO+ZXtX6JzPLVKekg5VR5iR6vBojmWux+eKPUEoP2tSgKnmTgXbXNlk2/Trm6Tsy3jVMCIisoaHzAa4wbDkuzBuVQLli1FFs7NH2PhPAYQc6aFZnEHSD0anqoPGhUBE/HwC8P5b8OKi4eHR08qyhMMlL3CS9J6rlAR1KUwLmE4w5mOsygdxjVRYyUzLYHXX+qVY0Vo9QGAL25e/CdgVZeuq1ketJkvxegNC9IB3FT7p9yIcDh+YsIZVuIqz0a13spb7QXDC912S5QEfGQx/quEA91h7PjaAMbPb8Kz60sVjvdazqptVXiolalK37jJQnZ7O0GMyISTogfVUw3h2HJLZOG8PUvtxmrL4nHTzF+L0Hevm9OX2bJisiG5gAzq5aSUj7i3erbKkovbXT/aXPUl4GWAAGfE0Ev9VbcVvsNHczj0+ShL4EQvASYc/hRd8CmRebNtjf92gpj02dOOvwbwfIryvc2+EdfXOiAF18tLPNkosX+l/fSaCQYgSlfQ2LrBghQ9srBYUzQgrkHr5Y3tAUsIouirj7D4HOC3Dsnr6zxDL6/3jSautuCTi9kJYqvSkQ0B46vqJV5oYiWYjC0bbIEixU92BAGKKQTQNN+sWWx94+h6n12bV3qv3rLSa93WlZ4b1i5127h5hev602s9l706lFDw+mDYuJ65lncMc5GVFG+B6tj5bTh4HodkCYbFOrBgqsoTVAYUFPf79kfsME5dMs/wnFm5CXDgHfl4hRxKA708UizAnaYPC6br3LizMxBfY/7VR6Hgl5+4mWP1cof1uC1duoOZNaogHS8HOmQlmNtpc+23I9Fl/4QSfgeUHmE4GRR2da3t8oULbZ9TmxERJBsBW7wtGOajPC5y2kdcJsfgdDMe+W6Q+ubYGxb5bOd243mtRrY8k7JyehTD6W9H8fwGPUmy5U7uNB3gi1Y/k9xR4YjK+YP3M6l3ipdOjsteNjd+kM0wO+k+Iz+C4fSvAZW7kCUtMp0/VvOedK7Tb4qjQx8JF7k95c6x62ZJM/tpCUe+1EeZO99xG0+1N/DkOR6SLvVSZzi9B0rXv0c4xN15gq8vNjve2REdcLlX1+F0j5nptpV++oc3xev8ti/OiDiTbAOHow3hQLDm/0mUJhzz1cQHQRIPKpy3LTWdX1In/0AuWYdgxUe2k12QorYBjlQDKBmrCTsW6S9HjUwEV8DZHlNa0ySDIeFsI7oVRLdsSA4glGQIubVKsGmJ+THiWnMy8Wi6OnEo1Yw4kuJB7AvXJfbFaLyLnzgaqgGHEwwf7qOY7dtAMjq6wkXv8ho7j3v7kym//dKQ+PzBom8aB/4k4WTj65KRpYEIB/VwIKRSGY71O14iLsSW0NPwu/T8meB0EoditInjsQb488WBBM0jm1Kcz2/waLy1zuLS1dVmPfiIfVQurHuXW4ytnWAIYpjkUhjDjNjCwvs3knUgtVHjzfMB223EaR9/OBb1VfFjIfa9TQMcSzEhDiebv9wXq3tkXYjFxT6H0kvLdc4O9tkcfT04Dk/ecxB3cp23r3LbHDxS5Y0w6tHhdOA9NPj+GHxAqAZVC6rqpX67PODZCU+mhBGv1lrD80WOcHeWKzzsdCUezHMhXm7AK43YiF8TrfescNnhW6rwhitJD9W1K5006OSR4gDymahtVEsQe1e5T0MdnvdLvYkdeqnLOg0vWJSZoQ4LKgMKvuTMApUFaleIAD0qtGDlDNW7z3f5NRAXaZY4f+/zitsFapvE/kRj4kyeJ3G6GLWddCPidKoecW500LUtXkv6OlSIGJoCsETog3KaMdS3qL45tdlrFkHM/IrrGoAdTsTJE0dCLFCY1sTheJ23cX5c7n8m9DZxJEKdOBiqStyqUCFuVBbBqeiHQ1t1oKVJFvRz9MEyVwnmzXc8RFwt+MuLBjCJ6tMiCkeQLYA3RBrM8pzHojD/MQvCemaTgEVrxgSxRK0ngv7i94PbcifPOXv8g6P7cUfRsyaWIhCh9ogtUhqEkvW6MtbO+GgF4z+J3AU1rnq5TgOCEUqPrEeGLrGbkL2eTjhU22U/NeFU+Cnx5jlu5UOEw5/ndEih0vvnumKauD1P6tXpivK7m5z331iuNHh+idbpTYtt9y5c6LG9r9tt3/6VrkeOrHLfenCVR//BXre1B3vd1+7p8VpzbKXDuuv9Rm1YsRD3J8UcWu21p2i09GulVDXAV02zpLgAK8kK/MtkYNpkhe3E/Wl+xKv9Fr1z9eZRapRAAE844xOOU1DPOUEfokul4NDWAHh9b8ph4smq0bd3xLcc7LbcvXOJ7dn9K9027lvlvWo/SsMBJHtRzxrJtvVLvfat7nLefWKp+b6rK7QuXFtrff76bvKsW79M+ORxGn+Gjwjn96vUUm2BN90aAqtNYEeX/rP7GyyPH1jp0b8HpQd/HkLlgcvkU7J/lWff3l7v9ft7PXei9G5Yt9xv7Yr5toc2zJZ/dL1PCa6v1F4B9zcIoQbAuW+F9cS3czh4aNIS6Ddm0o/kd0ZpsIToWsQZ3dqPb66x2X+i37t/b69X34FejzWfivf3guLu29vjvX7fKq89B1Z579+w3Gfnsnm2BzbOkrl3br4gDHap7nx1qR2P57MS+3Rje+YbnNUtMgA2fJU0HiLNQfWE5+SSzcG1QhsWTJK7fnebDz5okgc9g49+x/MAvxf6S0bcKdI4u9Z9BrVe4ZEiVR/lAxEOHpbDy6mRtSSElH1AiQysXeq1G25PfH//zNs5HL23cziYcPAGYky8eFd+ihWYFOrA5Mm6L0/2e50+uzFkw16Uv/0r3dfiesDlvWel19p9vZ57jvf5XDi22ufXI6t9d/+6MXj7sV6nXyZM0X7mWKQOfAnIeo0zg8TROnBmhfmZ1ycQiaOXkJGETwLnjbjSanl7k8vUX3qtThzsdT2MyxXH+aly/zPB6TzQ67Zmz0qP3iPrAuef2xI1cH2j3/M3m/Rg10JVKGtWgyyaKKB2fQRujEl8V57fA/Qs68KTO400KVZdw6IVYUSm9RO96ojovxLmtwLHVb9jibsSSW8Tb6gUqBb6XLQbW+jOcH6P6vXz9expUQsF/CSe84crPdMaFd5q2UX75iHTHwF8VbNkuOJEgXD5l4qZ9rtjJhW5SJX6lXGk2zzjyLJZ+TMvGpBAhMOZ57B1WLUXg3ACfzLCubGO79nxMpvHu6PGPdpgfevpZk3on6sAMTRVcCg1hMBRZhBeZwyhdfpEGJLQWn3Cj2ZMhNC0obhR9s6OTuVe4vaEpcSzxWfP7Ih+k1cnDxJxisASh6ycJBcYQVaB3DHKd4i9fjuJo+Hrx03WG1TLVgcOPDEf7wJc8XrgVyIP21ZYAfFownPi+fxrg5v8TjWPVb4ZVaUEwdW6gOKE4DqDN6F1BkRwjRHhWW425F5iDOE0NZg+TRFurNOCh+utHt3bGjD7+u5Ur8dnWj5aCvg5fEQ4CYgIGXfi4/tl2LNtQanEBsJG6UBKnQaE1BgQQbUGb0JqDYgwVB5/JiF1+kMhtYYQUmsKnhWmEFCpCa0TFWEfUiwPNxgtudGj4QQH2jkJYof03hVus0fhIbUcA2BJt0CK2R5Ysxzpw434mBvNEjOIq8OWjh6qD1QOtQZDuC4+Fe/vJaRWfyi4zgiCGi0hsMYKfKoMoHysMuxaJAdXl6sOXFlhEfJwcIowaoTDbqw1qZsxXfepBBVbebgM8Ko0TDxIkowguk4PDi/WO/rbdpsvEjpAh+SVrYGl46fq3rBF5MGSiK97dmBYbg7AjkhVM0cD5nc63iGOJpYwHqMTzqp3iwbIeEgRH36JBT2bYQ/DqZZgXW6KCBifcGA8hOrhfTmg+sDlTUQ3GUHyOBNIGmsMsWOMIaHFFKKa9MGoGFlasSgtEagsaDqwZo7GbWJ/cDE8CPhgXuGPQGXDStyocX680XLl4plK9ykNKhBabQBB1ahu6wyG/ljmnxcD9A7h+kNto87geVCtyfPAGksivskUgmsMIa5aFeZOFIVza1zWwZOl+HbQ755AN2lv53SfVlQgGa9zY5i/yDOjUWGrovum/21H5vwZUOdEQCXfpVGQrA/8UapgVuRTgPL1wSbPi6j9pcyrs1NIs94hGKMCw6NUrmmVBZX7rZzxj17L3bRjpoBUhn05S6jsTVZ/idtmtOho+qbVeIMslhTT5xwZ1qt+ZsKRrgiQ40aEw13jBdx5jocki38ywnkHgjgsQxyITh3s1eleM0fpdN5oCTDMHAEsUUpINJHCQL3UVHwgI77rBEmSLshlqEN+owrsXBMML2+1vSYejSeODngBeZQKCOGj2mOR0ooxg9DRevBsvR7AVm0obcHnS1kiNyfgibcBv3JdWNNrD3AlH4h745+f2hL7qqVVGkwyJNGzyFqKxxd/ofjwEtIkJLEoLVHKIJ8mDXFVUjB3utLVMz2aq9/s9s8nHq78LjOceFaDCMe9rqpN9+2iATwsiDcpZuFNeUjZ5qDfeElvKlLEeOUWTg8+9JEu+DtKI13wd6TU8P9p6DcZfSaiMovUAdYYOfApGwGzpyjc+3WV1UziRNb7jXDEi/Vae1Z6zx853ghEqW8PvaSTDRZEevQrkfHwHhmljR4+jutd/H+Ud2lh/MZpxQdpxqK0R2iBUa48NI9THNrdbbLlxYEUX0YSWGBwivKeLrPFVeO0QSgdxYOXOONl0Pgk5RhHEE5Wg+ImjWcPBrznw+mELw5Z4nnBe/sjfdbPNz4RMdoY1SMqxwx8ACgiEVyeaQ4wLNUU6tsMiEs9Ju3v5hFhu1rayk6dS+Zlxm9XqSELkx1ZRfh0A/YclB6cJmT14OsE6O3wg7xjYdRHMhb0G19FgJQASyryj49firMFhTRFmNau+tvTbc5d8GDqZ/OCXk524nyx2+0tDj1dMxXBt1QBtT/ULvHV3jjctD/G/znBacPPIcH1iJ/FkozKm/6u6IJ/uRzsWmx4582RmFKCOPWXzjij7e2WlC5wXcqD2iFPhOJ1zzFJsYcBPkuufxecp1eGKuc6XuJy5wOdLIf1dfv6HRhOH8BofFbsiGTT03j4TzRC/bp2vndpwdaVX32H019B0foeaZUCnwI2P+lb/DHqz1Vz3CbiW1GREyt7hmUta7rZC45M697PE47Wv0o4I8r8JATyHDcMo3kg/WF9iD/L4aOTSX4KwsFACWElni6UfnM6Lf18r+Hm9jbJ+x4lyiBF1gb2BHOkPB3RC4JeDPoQB+qBkxyBI9kA/ItloW+xNTw9lw9wLQ/2r/eEaJoe8CYaAkuoNRhTTWHOFEXomykBfqXoBYtwBPY4K/AqNYB1K10ABjPg5WAx7F7jR2SPVgLpFEVgxfHhI97xxHEaUlBJSPHFW4EoesnNipRgZKvCbweWmh9+fTRuFHGnSQOnnZGNbwbxbJLCsbXedUjZIsLB516h/GVbAgcSfGozPpafPsSGd9bjHfV4Nz2+6CwdWwFIidH/w4K+4//wElf8HR/MGGcPgom6EFwqC0s6NG++3OkxkRjM/sMY9iaN/b0e80ZhwsnCiwZwXKh88d4XZBHgeRRW/D+2NPDOfno8OP4/CBnFnY7d3rmj32ko7Yn2wJFgCqa5mjBpis7TO+scV78+W+iOyox+dhVugMTZfN/FM3W3BZcrAw+ew6KfMICeT0Qdg2gziCmVgYXT1Y4TxwviAA581REkxIlY1Rv9tv25TXoEOwnVO/0WUBQuPoUgwQYESPpQO14D9i3W6wI4Tw+T2KaSunKu9iWzciNgx/lAdc+ByPbdkTrsSNgyUIcFWUj0cv5jGbyrD/wsGeU9HQn+D+/sT3ECgVRjyBklCTu6DbYSN0cHobz/6YGRKJ+8xJ3xLjfX2/Z2tiuCDWp37Jg4k5yRtYXiz0CdgD+ri08K9os7Djh9uG2jcsDXiGNyj7QBq0xVmDBR+cH1XfHTCWLOX9oS0Nbfz504o9xPIEb1OHeGHjGi0GW76dgkZYbzP46Vv55QtSsPGMvtK/pcgmz6wmJMchUq+48UMm6T2rTYLLEEo0F+X0lCJt7gpvGo8AbvyTla+GBQhrcfChyn63iqvE5lcIVwotFDXl/xF/pp5t2LT+2hL1wKaywREipwnoI6Pi84sm1W8mR+jnB0EOGY/HsWTqmLqHixxwreMhdgTTY+JFngTL865PdA6WI3ro3J+NcJ5x0ABoYTp9NMb+z0GXVwqfm5CW3KYJ2HenaJSBmTkBLFO8eREuDApwEn2wJPnDbY5CpDR6c1PDkWD0Nnw2D3CmPwrtQGjkhzEEDKxarSCJxo+jAiBb2o4VZgVagHqxYZwstTgUCcToDlS1xQ71EDROJR7w/fJ0JBveE8pCzoygkJIhvlTC2oaFSCLQv0Hl7Y6jeLOFXhThDj/7LJjfKreHxzUH15k9Ij7Vzcc0bxI7Khn+qbhZQ+vgOGiv9DyoK+egwLUhSYhOifSPDqK/SJehVIIeL0O6N8OINokh4kl0vChvn61+/tCagl7qbIMqJ9D+LFJo2Dva7zq9sQ4VBQmPggR3ykPf06Zzy8xphHwXM67+L7lOA0ZKJ48SpB+m8UTrIrcCWYgWuBEnS1axHXNzouJM4V4ZfhvaIliHmCxJnskRNmWA5qZWoiaww9F4/r1hq4kWXgli8JK6ervLmz2W46cWPuiK99kQiiTnzocMKUlqkmDxQyUPvBJIEJIMkOeBJ0wT1fArpm6T25ucVvDH7p8TPvLByLMlNgp6D8IMWMLU1WfM0BfT8Q3qOEwsF1gJdsf1AGuHxwPeFFF3h5Pm4/6D/sL90V5ccKTApUYfV8/RuPDngW4rPU6An9BFB6+OFCUdjtdbab26coPDPJVUSdKxRvqgudiOlzUfR2gOP7Yzo+Jcgfrj9MfHg+CqWVNRf9xotmUHnop2vCuAn6L69u8+0hbqOXhVEe3wuHSXmq+qVBHTyBEs8lknWv+UwrHk3b0/+v7eLH+dGrjfDiTDO5xpmsCtIJusvmHvz0iITtggZh2/rUOJ0CrwNiESowLET6nnCG9XrnBnLirl3fvhT+c0DpYq/bOMdJLt9jAVecyi2eUDnQpdr1Zs6ockNu9Hckqa1OXKzEcyqybF5wZ9uu/PSy6Ly3hEMyAkmK5b9GOA7jEoZrVUfPES1wAo5Y7WOe9YlmDKf3wOnSqgilsNEJx+HfJ5x3AOiVJ06FJAxucly0eI7enZIWFTDJUUMvLh6eQC8fCSslpOCi0UsTagl6qQZQOc4KTm90Ioh9FsS2Hk3wHWkInMgyYk1yAbYE9KJF2hEWOSbEysXqAIe14PoeKxgz3RYss4wQESGLKAqFmeSFerZIQeAee7IJyKerQ1a9OsycafjqSJ/DRmKPRzG8HPPDxqIJ4qzKoYGoppwa2UfKeIgjGqUT9/DpPWyUBrqg37hH/V7w73f/YXekiLBFhoeB8P0qcQ6gkKYDeXVKsH2x8eWhgwGjAMZ+soeJLZwDq9znjRpnDEKpSDHFo/jpYSKFhsOjx41/o/Dx5/u4f5cGeu8Z+8V+UH3glYKIbHgT9SC0TA5WzNZ4+nCL/TzicvhHDfDpaZL0L+u9evPHW75kiUb5jzQDyRRdCCpXANo4BVjRqXXn1oDzLOJs+DctVSeIHQLE5VGZizqNT3oWygFLDMpPlDUoZWhCTo0cLJuhfOP0OpeJxOnM9y8w7FRL656tfVG9AF8FjfKKb9CkX6GN8kkvCyQflP8fBbuhMsQWBa43+ukH6DPWBjRytaBhjBRxbZPTVHhO+dPePkEQog+OFSStX2C0o6JRHsyyUJsPR2mP93xbvhRkbWIr6rPp+L0w0pyKJAXXI64flK809O4kWIJsmjqMn6ACv6y22ULcqXJiJOMvwawpwUUw02qQNVEVRiQarJm6fZUBUjQ/9IKzb4XT8jYVrdqYVTwhks/FguQukbqbM2jXrn3y4jeU1mH+7TR/wxyXbtEEnVfsJG18M+lJ1XyXib6do+J67/zfysbvAQpfOHHxOA/lLGeadILmVl6SHggk6r/WoFhOj55ZYo/jZ3hliRxfJiFR6j2FL8/lOTfVbgUn1fajQ1XxfThGIyNX86cYIgvH4h89Lfr3IPU0Cdi1UFokM21e80SpnImbku/xx3Tg3/o1URSODIvXHMWOMKzIrZLh9HMAoNuEOBQ65vQK/aMTpqg/8a9SA9VMXRBIMYNhaZbAl2ID/HGoxxZlDrxJ2kCq0YUjK/QAtsnDuqWq4F6FFECsOyIlezDMNBuaP1NzCLbKwMVNUjBqghJIpushJW8GfAkWwJ9mhcK0RWFagkKGPjhXqEFFs9Kr/d2aJ4jdXjOJe2N98FJPRtJ+CAjiuNaRgZhJBTVSz7XTVYEz1hJ4UL540i2Ah/wlMUeC/CIlx0O2Ai6Ufj7UE1Yh60B2tQKxu9vgNHEqjYbvYWFE9xGQhaW5a6XHouo2fZCm6ANnshnwZFgxwv9KSUfpoKDn0CdXKirDFGuQIptC9EglWD5T/jaxzXEG8aDyo6W/qPGxX9mTbblshuZJUr0KKFM0wKHSAHIbdZ53tSv8+usS9S3EwYB64skUXcYjXw0UNgdxZ6LppsUGq3JrlEAkThd0KSpQ2iRP7O/WOU7scauFx2UfKI43W/Vyl83RvWtSqg98qaYwLPkTef2coHrjRaTNg+oB/+ZOtQSuRDOQIKlBer3S0ImlOseIw9GfVOqo48FNDLapvDialLtvifGR4noxGEGWRG3TCHhITqht4hWLxqiMseDwcb1/Ig1/JqmofnCe0HOciLjYkSWvjOdB6yTg5FK9k8Qhjx+yP8a3kyavmevWwhamBPxZlq/ly4PrUF3867v3Vzx4MDx51qgkwQC5C3wR8qBd4rUhbHqh4R8V4u/RvLPfzLImbrxgkv4xgTj1Z+LIUlQr8blkXOYzQ6XMJ1W2KtzDa2a5acP2pcrdAwOStAUtYnldrSILtvcJt3bNEAmdQRMpXd4pOu/UfqmC/qnaWk2JdjL5nmHmZf4jNUt8dwij9sIfrvCSJ1rtkBLVZ8zq86c+2rcSOaNOYniu0zQOigWwkc02c1BMrRlO72HRQDVRLfLbPixBGSSTtTZN37PSEr9bDOd/DK27dvGEzajMk07Sv8MXJH0nZlJe0bob50YwnOnA76VZXXg2K+pUsuSZ41NNqhlOPwdwY4XHvWJwmRb46EDUwg3z9a9VNci98C/XGnIp0yW8y3WH/JDYlegNyeYYEKp5BlA6Rg0uL5MA2CINvfO0QafYBEZkG8HEKVowtEkOBTcCpk2QAsd8LVDNMgHrYsMh30qdN97lOkOu5XooTG2ioE7hZc9M1fu3NzqsJU6lRBGPZ+GzmH54Lw2ZY7oXdyZNmz5B7rcEmgzYFmoRrhW6hNs3iR7906lcH3wrtYmqBtlXWxYZHHlzMjGHICZ+9ggW4sU29b29HvOmTNUF/wp1sCvWItwq34b3LeJeoQtulbqEY6k2uBWrQka14tDa+fo3Xu51H0tcyFDA9ciI8j2e3Dgy4tq+9NxFUxVvlteLQ1GD2tPeeZa3r27x73l+mpJOXKw2Iu40ffe9LFiJ711qOWnmDC2IqRwBLU3CL072GO9482tuCvHo43J5tdGmYOdi43slzZrgV6UNzuWfzuunRYdwLzcY8ig1e+NeZjiEy8K5TAecitRRWcjAog7t8y9OJJcSxMcXgmE8v9yl+vpEQdOj1cYXV08WehNeKQ0mxdpgXW4IXhV6gNo74VWhTbiVGRIeZaZv3Mr1h3Ccn07Lp8Ud+Xet0Cfsyk3pdwMVN8m92TFf/farHT4Ugmj7IR0p71kVyRoZLoN8ruKEfq7ngZietlCG078K3P6Kl02XFUwxXcEVr0IIhMndDGhITLl79+6fDvXhZ+buXDciZf7oAMua2Fki6dYXuMMVHvOEyT7mSjV5IlLsfdOwNna799isKf6NmRWWo6Lz0G+q85i0TMs6UrZKTWi2QW1MbsDEvFFuYyndChVBZ7jTbR9xR6g+5IpUechPsbpuNDKi07Mlw8XkT67ZTp87ZYRous0EziSDN5zJRru5yR9fMa0zOtFMLtdtN0+E/JBMnPq6lk2L8FaDf9yiRHFy5q+e4isXq7VDNEDuWWhb7sLJB7d9MB+I02U+MiiTO1btFSfFgOAkG/9chPMOeO8F8Zim/fRgbNqpTf7zdvQ47t261PrYthXO+3f0e+/YtNJ5z8L55sfHTDW/NnGa1csDS1DnZYsaPO6ThCWTRaB9gjRc6EF6b6sKnFmhDx3t5m/GTTa/ubDD8uTGXq/d29b6b9/e47xv6zLro9tX2B88us5n6YPdofnEuThTfGw+Ixk/HAQxqHL/WN7I48sND+/u0j6/ucvs+JalVke3focMdJuf2rHU/PiZNS69v+2JJBHErC/euIlXCJ7fHF59ZKXdyW1LLU9s7rJEYVl/FPbnZDv+XGKGnrc4tqXL/MS2bpNTR1c77Hy8w6eYuJH1p6t8HuxKNb6+wXvFkUUar3YtMjyzf23omIc7Y6KIK2QDgrj8Q8bLz60PKDmywoLYtkAJTq4w6iSOpDgDDAoznD/A0y32/jfWWq481WN6Ytcyy5MDf8jnl2TbUusj25bYH9m21BaJxbGtXaantiw2On1ilcWZa5tcJ+EFIuiF+6hHjf5jf3io2O3uZr/tt1db3jnSZXhi2Tyrw6sW2x8dWGZ5YvsS05O7lprTw9/abX18R5fVCXqZf5dYH93cZXVy8yLD8ydWW2z9bX9MBXF19g87xslvcmG2SWX4r0pkmz0edaSceZf+2mq3Hwlc9t7txWTdCv/dCimWJyMm5VctPbnzi5cKoueGJS5oUpPMcfbSynKoNCn3X6NY6nt7eIEzCJDNYXiCwVPBRKNbAmkW14ZnOV4VzHW+wpvncoU71/EKXxb6L8XgrnCSwZBQti1I5Hs8V89x36KWaV8tX+YTGjqPvujoT62RkgPdQuajYoq0KwJ3K5f5T5Qt8/nI2g+eXa1mNyalTaXQdZ9+seek6dtX6nyqnf3dQHGyLju7R1an0GO0Zq7LgdDJBdNp/R8uQMF5DZmUHa5XHrBHpzLoqE55UArD6ecESjAvQcwxJ64khBCnfWJgMC4M7uQHEldiQ4hj1jGPN9hmbOsJpO3tC5x9b6PDsjcbDHY+7Te49LDf+NLzjUa7H22y6TncH9C5aWVI7bWNzlnEQds44iY5iHhU6U9cSQolzvpGExciw+HZeFsU19++jBMRqeCrX2jmb3Y4xBL7bZKJ0+4xxCnvqO+SIy7xxAnPGOJGlRNK+1et5gK4xvt0P9mc2BkQR5z0jiV+8ft02J+TE17RxHGnOOIESvtJt1jilFc8XKMEEsTn9zHc2pFgeHdraOODdfYTiT0hJHyQKMPph+Hefqr3013hHUPbHCYRvxZaMf7+EOhFCesOY7+7y1kGdtm6EoedY4mTHnGfzOvnBJfDaXck6BOXxRGneFQu8XA6LJE4R/posvcdUF2x3dubonN1tVXmtTUu1Cc7YyOJg+GRxClUFydRWuhli9ol/o3DfVvW6Pcn0vAleVdXR+xQW4vyI4g7P+S4onfwaaOa2I9LJ5lOoASn9Lf96VDuv4U1F08rxkytCjIrj05MmFnlsuDAwLftmyMIkbotS+ycxmWQhDNtq3ni9WaKJBn0jEi13C5MtjnEl257mINic5gt0+4wN9X+iFCO7X5RsvE6wRiNTt54vRbtquCshJmjXXae+3Co6c9AO9HNFTez2ih0enmQ97QCC9f2tI/e66YdPQJZy1vNHSZlhzpPybVbcXjgX1l+joHaMqv97GI9m0kZ4eFTSl2zZ9V90OnFbT2jq1U1dHplaMiE0qioCR8Oa/8ngTMNzzbIw9Uxhq/PlocQv1RUEqczK4gz5PBXg02m8LxPGfn5Ka+U/f8Jj652isLjpZo/ypr5FIg7C6XxXiOCuPHnK9xQe6HRaP/qpDYT/03cRx27rtM7NEqWTHS0q00JGEF1CxLNcg7EolDsF+w0KcO7duM8Y7wYhPEIE/+roBMPXByG7x8BaEcygL7/86YmE58Grou/uz6+Ifx/fWKbif8uUDvjaOtv41bN9nwvnm3Z3NhCQW7MtsUEE0wwwQQTTDDBBBNMMMEEE0wwwQQTTDDBBBNMMMEEE0wwwQQTTDDBBBNMMMEEE0wwwQQTTDDBBBNMMMEEE0wwwQQTTDDBBBNMMMEEE0wwwQQTTDDBBBNMMMEEE0wwwQQTTDDBBBNM/KTAJ6gi4ToAwNt96wT/wK1b/F+6vhn55zxC3ODrRn6P3LjBh/2j/5inP/9/jIsAw3qIOwKXCYKH8ddfAm1ggCOsvUSIxVNSXMhHXpjW0YFPGP+m036x/xOoba9DbXUAte2eO6cFcFtnOH8SuB3jdwG/BzdQ28b5Yrbt/z+A6pkd67J1qN6xLsTtZQeSgRMD/AMn0O/TOwQGgK4f/1Ibx1dwONAy+IUaooXdmgv4uru7//FrqP819B4YEGtdv8Ahc2lrdOK8ahJ1ydgEWl+H57iBFZ+8PGjuunV8Y7cssivqaYvB/tMX1cdVrJzk2bpqjgzDCxP/HwG9pJxz9m9SyVnaEkiaPzqdurQ1ZO3lg6r4f4aX7wJtx0Lp4En5iSJR6s1KJJP8hg2dRt8aJlYWVX2zLFIX1ieQFtaSUhbWpWYta3a+ePHiMIaXD3CaOC0wdscS08zu5kjqgsakwsXj4nO7xvpQF9Z99gI7Jv43UL92rmp572Q/8uKGeNL86sS0RU1plK7mdNK8WlLSrOq0+BkjyahtJDVvWhS89OCXbyj9M5AbShR1ioLjBPNcymwbU0LnbV3209zG+rfDu73Y2qYxsUMp22m/dIrFEbk080MqqZZ9SW3ZDugF/6hH6TGuSEOpIHCBfKbdAalEgyMKVMeDOiWBG0xoUYEML0z8fwSntgoVq/rUCapZNjulIxWOK6ea7PaYmNmS0Nv+l24QLFu7QDN0Yt4so2yLBw5lHnsaNi0Ow9YGw/mr0H/phLZ3fVKdbKr5IWmK5RGZBJ1jBulmCxvWzHD8VC/VdkaujdHosG6FZP19ciSjw4olXgflCr1Wq1X5WzC8MPE/DKOq6HSt8oAdsvn2ByUpJselKJYXZbJdrkpR3S9JUV2uSKRbD0qlmp1RzrDYrV3sO8txQpbPl0aDPgXn2mQ/+WyX9bzJBuctR0cvGr1mnh3D6X8flmMpfiqlPsc44zSBJVYVWGIUgS1IDpzGkFqmHh5QZHijAxEQr1crNZotUvf+W79KwEbSA/Esx6eqRQEZDG/vgfxzlM0YL6Ed666qGGqt4VGSoLjn7FlBhvNHQP7Z23sXiNllhSoZRvmoFbfRZFGF8jGcPwmsOGgTm6S1olzVFGOcNCJq8uVufOEZDBQXf1d/v/jatWtF0Pf/GzKh0dgckMmL/vuIbG+hZ0pWTFWMbMzViaNlqtfOGyuF/H2gBLF5nNbejnviHwzDnBg4wb9h7ynRL5njM3atFXEriFVSiHLQtE4NVMFpRHF8MAyETHI2k7S0j3r7dwhCYPDhQ+E/pumPQO68s1C4C3p7xdD3D8L5lhs30bPsVnUJgRI5jnd5yTrAHiYOPImqIJvvdNN8THIYw9sHCAsL+2D4AIdx+MGD4QNnzuC0vE93SW+nPGlmZVFQQ/Cq+AnJU9v29Tvg4TGG81dh4OZFS/NS/2UsoTLAmqgBLMEjgD9a9bHThOyp+VtXyDG80YHi5tCoCqMKky2BM04RvQtKwEI1Axay+V3eHHsvhrf3wP5pc6eMUAl1UOV31dFyQ22WuEt8tm139XeJ4zrF70MmarO4vhjOnwQujxhatqy0v6mGqLuJpm9JmvyX3gcM5EegY6Bbcu2uXR/c4JqG2gxON5KP2vaxwUFhH1qSsnNBjHbqmEKVWSityN+H7Q69JyZv2/YHOEsQgoMPQfhLbZu2oF3MvihKLbAyWat0Rr3qtrOHcBzv3xP8fWAAOBwGBj5og/j/XQQhcuDx4w/ayKeA3HkXbtwo0bWtXxyl5/dkwA5fGLpSyPcZM5xiCazxKsATr/6MJ07rDGuk9k7WWJNdrPEGu/jidA/yRWveYIlWAoF0Y9As815M621537EKQ3WM4v+obPF/jPeK7uZQkxonS7G5NCxGGcwrglbP27/VGP+P0ztw7YzY2bN3/7QdYaDwuOZsXCVD6WzU8qhO0fGgkRX37PlQr2b3t9EvnsN64lNpeg9U3iwZYfwsCQrf1Jn7bni25bprlvnv5E7QIoSyLYdE8pxe86WagubI4JOuU7PDGd7ooG1bqO9Yn9zBF6v7fHiWNYgWORNcGaYglet6QbciNIbhjcW3PY03YWqJYsj4TF+LkTEVKhmeU5Uo7h2GZSHjXJpSSUET8gy0J2Xwo5KjF0Q7HOBMXzZlhG8T1cWmOjFHneo7QSHFbYZFcXidb31qnEdTorHtFIowbeCtMsQNn9bbzps8o1IrdEJOhN3I2NGq6V7tKlnes40qwxucxiRHh88s083onsT/+8LGzwVOLBV1G51q4V6bEu9ck1TsPiYtO2Bivge+39u+Ok6LO8XKWask2D5+Tjl9iBA9z6ac5irkVB1r4DCGlOjQnDbepjphoW1F9Ay32qSqyIklQRXL21SQP3ra7CakKCmWB3vgcFSLg2Sl8n3FjIr8TS1zAxM8RyVkx04pCSF3NWt3Xd71/uVsP3CAU7o0UNShNcXSpjY+S684ZIIi2W2WVpbvBO8x5MLk2VV+FUsnKeA4uqGbPXQGTVWp0MeVI9HQ2qQlSkyyLFTcmBZk6VQfn+TfREkPGVcQHDO1TBv5/0BhkHpmCvigsvesS410rk4qcKtPyfdryw6InkJTli8PkuJIMLFRLgpwCZ6Sqxz2FePKa25cVDSrCBjDHav4QiTP+rXSqKDn4gUOBHeU8pBGtm01Jj+GVzoRG1V4K/Cl2bro1UTbx3XT5N1bKHKOo+M8nEZGUXwbU6kJMysDIxbVyOH5m3l79giOXjHFLqo5PTJuXI7H5H0r5FB+vmms+5eX9w3Myv3ncsaogGihEwjnOwMf1QaEc+3PqFR4WzO80bHjzgUNzVyf2VzxBiBe4EwIFrkAa5EDcOTYDYoUu7thPyh+1tZdXTyJU4vUIlDbthsZXaZC8ZwmneQ4V5fqPy6wJZtE6mwwIvU0vScSXGe1q+bIkKZVuLvVp+VrZHpPUSC7tpuUh472qE1I9KhNNDYYlzO8m5E35J8Nt9uIyTla/uMpYaYl4bXyKa6zZElOc/Tzgxt9WrJjUuc36OGhbXoEDOB4/MaXSVhWRdv41acneNelVXo1UHIip1Q4e4zNlRJNMNEUy3Lz8m3NcyjraqPfb4/rWJ7iI5zWSTMNGJ+XYVgRPtGsNKLTaVTCRK+G1AL/pkz/hKk0RZQ2Lpw+CqobxTxPB36ypY3DpEJJ3O40y/0snesSkoPGZJCTZ44My+tq1ft9xyDtQDunbVuSuHNdop1FZXiBYUnodOvK6DkobVMCJuQV+I3Ncg6aSxuB6xzlgatm+RwVmVRnJ95ES+OADtpw1bpQcUtauKtnS0p20LgsamBzVnAEsqp/Hwcus9LtfcKkzmqj8ObMSO+a5FKPRnJxVHtJCGV5o5Y6LViTL9PZTbUs1M2mMU2e8dhH0K+MLBNJM/9tWLQKYToyZFNsR02MUWmoqmFllJp+aYR6zqx6C4dmyijuLLtHLBnaIJistTN+ZpkT7gTwR6lripOs3Z2bMo1p3d38jCDpsB9PVVMpDfJkQe+XbJ67SFRTkbdypv0e7niVp4al3rOql801UCsNVg5qJof6NKblejSQE8Pbii3bN3QLobzR9Rf+dJtbwOdUE6/iM4Yc5DeWWusyhjzXdGTMAsPS8LFutaTE0LYCbd9eGi/2n7drhohSaZAZb7K1t0ZFiKNvS5oY/v8dTsAJLvuiYDXBKH0PzcKgIIeWrL80IvHV8J1W5qJZ5L1jWLj8K80i16PBc0et1B0d9otwqtEL4USt0QxvdMiW+sdIFrpfl8xz/s1ubPoe4/qYY5zJOq+HkQxPiWQ6hmA/uOG7jKdGK2baLuOJUTklkGl1R6bU57FKZfBTmRLPx/xk8/PCFNttauWhRXldM+g9sNw1s42dmjPGCyda7OdNt7oiUOD6RDDL8Tl/itkD3lClC6LxurutmklNcasnqmP/C44dEybNriYpUixW8SWonBPOsbunUO73WKUq+OmIfJf7vGmmv4hnOQ1Y1SZmnLp69f0d5iFTSoy0ioPH8seZ7OaJ0T3PTza7KZTtcF0oy/GUQlnAdrkyn53cKcaHVAt9VgRMLvDDz3Sf2CCvmOVez51ktI8nxfiiWJ7jI5lir2dyhd6PpXJcbwummp7UKvSaM//wZhvcQ9GghUaL57vvGpZus09/dOwcxZKQRWyxxoe4QlUv8kWpXuZL1T8lmuPUlzi/Ohg3VBxH1YbZZpKFnjO4Uo0OCaSaXpUp9nyiUOJ3Tyrf47ZgtvV1gSTd4+aVIVPGbu01bju7RzB0xkiyPNVxK2+C1nbd0ZEd8sWBvTyJeke4IxQu8cVqX+IlGZxULfJe1LxlkReqD3oDpK6cIeHWklU8IsthM0+czlm+JIMbqG5u8lBsz4pke25SqQhejtK8RzTPdadpfVwu7jTg5z6HwIWN4aq5jme4fIReGJZ4rSza1t1sVRc1wO0j/EKDYrmtcN0cd4ZXloRxtOFCmc4p7BTr3bIjAw9aTaD06FUFL+MPVTo2LFDqCj8qGzGyxQm96pj5DjOLTDc8eiQaOT6/WDJQYYO4n/wsv+YsZ9qJE99k4ZwjnugZFXh08oQrvzasjrwRPK/mqG6F/71hIdL3zQpdU9+VDbZqo+bUURTyPAd5Eo2e2Y4lb1Wui/mFtcAOOMlml0SybF2xtwcAw/OWj49VSDbt4Y2QOy2SYXZbscz3sfrIsN9kCtwfCKSitp1us8WsJp6Cwh6OhK3j1HZL+7q4iXwk4yN8mfZXxfI9fxMrcHnGQza8xxMqc3FEsvF+03pSU9v+fhUcxyWCkIqaUUwRTNLZxEPSOStGdb6nUhH0RK0y+Ik41e0uX6r1WZkMhy2RU4oTUPjvCb1u82Iby+q4SVxR2gd5o3QviKTY3Bme4XidP9XumGJJ4ArJYu91fFT7I/IF3ivVy8Jt8DOxqOMin+c5fniqxYHh6ZZXZEu8n6hWBN1XKfG/I55hj9qd8XGrmsTOqs1dDgeuXUMdvNF+0lm2y4XSjfeYNCZ2K1YFreIh6R7kiZC/hNr2JYFE3VMaBV7dBSsm+11jlK3v7CozzargWYIJWkeGpxndUCz3f6JaFnhPssDrgWC61bXhZMtDpjUJM4Km0YxRfoYlz6ZFD4/VXyeSYj5g3prarlQZuJg/RuMQb4jMVf4opcu8URonzMrDZlf0zaLXCcbk3X1abm05owQzrHfwxqieHZ5ocEskw/4Wf5rFr7IlHjvlacHbBIvcD4sUuB+WKvNOZjz2EQxGxRWJkYwf8YXIPAsal96O3k9VhtN7hHfU2fBlO11mLTADthTN1dXrZ6sNEs9VJKPVxgtGKB02Gx0/K2TOWB2Gd9TJpbEZ0mILpcr8jrCmmq0fke/uRp3UaKuY47qEK03/kVq53xZdpCe4k4228YQq/coXqX6VN8n4V+l0x81RE4rJ+y+dos/vTBqYxO/UQkmTTbdbzROj9cvwbOv7UiUej+Qr/B5LF7o/Ekg2Pjci02Gzfn1COtZD624c4ZPO861kSzY/LkK2OWheFRJATxAD+f2zbPVzXGbz+YgfMqsI6aP0zfRhOP298GmvcNUo9NgzLFDitVG2/Yoll47F+k3IquX0Hn5bOkq1f9vt8+r4xek9cICXL06jcVi81ivD2qiBsrWdBRajQ+ewxiq/YIlWPcMSbxCEw+s6tE3csi5xtirV9fnwOJ0TLMn644dXeFTK1QSVi5S6N4nmOp4dTjaGEXG6O1PfNjJWfapzsnyW3QMhqh3w5jhsYimyL2fJsKhkTdRrGR6pPiBPtn5mXB970q+jwpOe5iaqmj0ttkeNYv9IIFZtC0u6Ye2Ikd4VcqMDysWK3KaIZVgPCiZog3K61UB2ZxN9KGbpuZNqzhWhY1G8j8Sz7EA21/WSGNVumQDVfqFMnvs29AK85CtxBI5UHTCsDD6XOr85buDixWGje6b56BX4HxZJtXwsnmHbz042bmDLsigVzHeukMv3mMcZo/FAKNP0mUlD/HT/mUXSZg2JKTIFro84MoxANM8FlCvCH2lVhJ/UyHPdIUmxvMKdqAE8CVpgOipqXdzMJlOUf86kGbQ0pXzPiyJkq7ti6ZY9ooWuNRKVvkW8eQ5F7GmGi1gilYkRuVaPdCp8ymkDC8RI88cUKuU63eNMVAMRVGZq5cEvtEv9TqlTHfbIUR1v8SRqgWC60Svj+vhlPrNoyigOfs+a6GQFssWvw3MsQSTD6u6ITJs+/myreVL53v2yxcE3hcq8gSPbHERzHUC/LnqyeVv2l8x6dvWqgFpBijGwBsm8Mc5xxwpc2bMmisIeKPlgeLblE+36hDqGdxa/8VQJ4TzPOu4cexAqcQLFKn/QKg18rpHlsE8ny2aLWJrpbfY0AxBNMxlSzrHLXXrxjGZgG7VNMFzxDWeQ7KBGcVCSZVfXN60OOvPyib5RvtsC3lDF1xajoo407u6tMCvyns3uL/5Ur8x/Tfb6DkvsD1vLcrmu8yRzHUG9xHd3WmdtrkJF8EpWVB6cSQaXhcgmjthf/urp6gGTCxcpUh0ecUcr7OFO1hwjOdKzQr05tkRhZECbeLr1Kd5IFVCm2Gyr6O+09UeWjuHo0FqJAvuH7PG6IJ7rvlFxdFg9b7FdFUu80hgJks52pUz714aVEftpSIHid6G4a6q5VyO5Vyrd6rfhaSa7xYvcWxVqQspVmyJK5IoDZwxPNrsoEKcBGvkeez0nl7qjZ9jWndmjZF/uN0kiw/zpMIoZjCDb/ipBcVoynOK0aESmywHJAg9CoMoNOAqsgTvV7BpXnLEvzg+yRjxV872PSaRZPxQhW/QKFThWi5Z6FgpRHYv5023ms5MMQKrI8aVeldeoA+fPC5XMGx8knWVzkpuiC5LFbqBXE/NSf2TwKa1cx12o43GNN0kDBMj6r7VGBS3zmVKqjOPwGZdD0ijyvSxNtrgjkmHSLVbuVSVc6F7IkmxWypJk2MePLE7pHKcX6vleKSgvvJ7js5J504xv8mQZAXqPXmtWhjzQyHU/pJ1lu1M+w+IWe4I6iGdZPtUr920ZALpVxOFYFUZF6brORbUAiUyL6wpZdiuFMxznSWQ5rlMo9308YpQv8BbZglCxM4gXe33Qif49DKqii8XTLe9zxaq8VCp236VfG9ckW+FTrFIdXqZBiygUyHQqZE/QnsyZoHVftsrrpl5DbCWKf9jyM7tt5SNVDwhGyoBxTfRBv8Wt9HaFEdYdxq5SHjJNHKWBjWz8VDLPJT5vSqulcrHvLHaK8TO+NPMncnmeDzTKAq6oZdnvlqfY/ILIA4Yl6oJCnutR0+oYfxzOmL4OSePy8IUqOW4vRFLNDrEkabSypBuV8BY4FYkUurSIZNldEqGYghTJYAtlMmJDpFdMxqSVSmY7glCUGphku7Z3HN79fopErzGpQpRq+ZQjTBLMKwIXFG/p0mM4/b3AhKNZ5LVnWLD0GxWyxap1N65YhNaTrNg8BY8oUq1vxy5qzDqAEl+yaZaBVLLhVna/EddcRkVR+q7+YiidbzuOPV71JVei/jn+VGu6hTNx73JR89EJuba0+JlRtdkpjd3t8h17+yQrNs1X8OisstKvi189PFET+HyETxbNr/bFLwxbgGwVW4oGCBXYg3SRZ5t8gad2/tbZcncJQrZ8fluAR21qi1lDXL17G9UExyGTYi6rne050qUibmJ0U75vY3u7UF7XVJn4RWNUbCdkBaqX+G0bFi4H4nGaZ/xb8+LbDxwQSlgyNl0r12lwmJ/4kE6p737SstaMpce2K09Zt2xEzsx6K62qmOnIMrrHESJN2I8MO9i4bVXo5cuXeSoWtNi6jE6sdaqKrx27ptN154WTCrQN3fKhs2jadvWkdP44zRMcmXrAn21zVKTYWysc9QJV8pxOs0fJwrA04weGDcmLOo+sD1518bBjZEdtLirD/VzhsiBJdXqhSouJRfnnCqrP8DQrCWlyrYynZU8e7ZA7b6xU/trZcu7t+ZpyRR45bIm6t1iydYElXnF+2gKa2MjezgiVLNvj7GEywJdkdM+0Lr6jcaArtOvsfjfSooZy8WTDMyxpWsCZZXNFsNTXrGnNMmPtXNfNXEESxIgM80G39oJR0/eu0cErFPuOb9FynFBI48t1GWRP0ngtlmnx2LAueoz1zKI/nV/AddZ//pi+LMmglz1OaUgg0/aCYLm/KXbTyXHV4k81P86OCFeAbL5m0fFNeLiRzbUxTUii1K9sGNXuBVuaIXDG6V1XLw5ob92y1PvMs/u2nu2lY0Qyre6zBYqBRITStI79A46hM4orBNIMrrEnaJ2TyvZIMaF92er6PTDhmJR4zeeOUBxSzHU7mbiw2Vkl1yNAmGzxWL7A/ZVmiW8K9tfWP0eFO1hqp0i8zr3I9ori6v5OI55Uk9ns2aaoDk2vDM+2dcD+zBtTZO3QS2zZmDTZfUJOxLkb50ZM27pGKrarWcl+WoGfVpFP3zBf0RdyiXoXyYvHxTsvrJPgJhsv48g1Bs4Yzed6BT4Tgsfm2uStmirzhCAkJu7oDfFpymg1KQqspM5pMEHlxOqQH6XpVBlfZldDakmaVR366717cq0bu2SiFzQou04qiFOg2m/hDJWB4ckmz6UL/TO7TwzwF3SPTZOKVLrAGSb1SrUq6ED03Oq0RYcHFDv6+iTDx+d5q1QG9vJSzR6wp2gBH9nsjHCmlQfOT+3qmaaWZeG1riOTakrmNjtPXL9QmrahU95ler66YkUomTPT/D5LljawRMp0DA4eE25fu8RaKtV4M3usAvAmmzy0a0nvnLBvdUT/pZMuOUsn5o/IMDvJkq4O7GTDK8Z10U44Ds/6VHej/MAWn8aMqszOeqvSzomitP55shGdNHXJMu+R/Ln2yFIwAMFU46rz9+8LSRZ5enNkmB7jpBqCINn4muHIiKm0NZ3B226ec4nqGFmDLP6brBkoTbFKKxM6aJK0eW3aopFaq9gj5EEiz+laaOeoin13rmqgDrJY66bFBubNqdVCmTbn2ElawJ9lTYiX+RTjdH0KBhWRxZL5rjfZUCeKK9MSJAs9X6uODHmtMSqM0KoKey6V60FwkA2AJUEJdEcFXYjvaqMcuHaAt2R5u+2ISJVtgpGKYNoYtzFwRQtdT2Hg+VbZ8oBWoVIXYEs3uDEi3ykqZ9o4K5UC9w42ktbLYYn6L5VzvDand7VQus7tcc5ZOiERdSb7WeLVgCVVH4ZlWGFSY0V6VEgn1yvHflT8VFJHTVwt0neTBvokS9ZMVbRsy3ZQGRm6SSBZE/iDpS56ViekYQMhf+cSIytU99wew4eUMqxPBs2toU973CXuCiJSW8RB1kEdU5ObFk1vSe0fAeqJuGoV++ziCVcYUsyy2V/YM8vVhBYmz5tuulG4zJkQyXFcZDOeKu83pzxLLtftJXuI2jHZWFPdxhPb5Ufk2c0dRtJ6MyLN8oJ6tgd9vufAgQOcibOr1eJmjXaIm1YZnDp7dEbWwpbR6Ytbm50n58xXqAy4wJGgTghHq/wyauWkKKxwkcVAZaGYPGcn6b3kTzIaVCj22eo4kToXVUJ57sLmBDz+HYyUr2/72/FJBxptmO+EfM3oaVVO/mOywvzGZGfHzqlpCZ9Lm27QENc/nGp/h5WkTUhm2hyPmlgWWdo3RVi60n+iYI41cIUq3XOuS8i8CA/eL/vGFdpwsM/etip4JZ/H8OdmuR7HarauiMCKMru/TTBsXI5h0sRS3/z5YxILlk4cifIy3n1yUYdSZfAuziSdx7zZJiBZ5LFTiRanHjCtyk8BNfBhwZIvdPLdejKWTHLBJi4Ki2MdUlDKmdYtHHGqgNIII8oDcK+ONayxRCi8Lc8yvCkn0K+Okhwwobgqfm5dq9fU/LmyZd4HOShGr1jyjIElRXte3toZInXr5wcrJOieEAiUeOpYE7eI2jvbjBEH5+zjW+WQUlnKmm8JHLl2v8rWhppbVidHi6RZPeGMVHxjWu43ds+NS0qMrNPRdeaIkutYSg1vguYt4WTjp0YjI+sc8Bzbn6Dx/nkh0uLmSrkkgxv8QVLPzGvjukO7mrWxm/GYVBWN8qAVvDEqqLeldzFv5YSs8wBCeNhKLM8zlz3d+hV3ri3wppuPV8/3xZPAXEjYs/s7HcxGRWzgDZF6JRWtumjall6/0JkllfxpBpd5kwwu6BcGU9yam784Yf57YMIxK/Pu5IxUAGSh3peh+ngnr5ysb92QdFAU9d6HOfOP3EUQPDlLxkUJBcsM8vuKb1p0cIvWTuLJCI5kvU6OHFPgzbC6Kprv6oLD06bRuEIn5amGTytzipwzMiqjq5ma3T2uLmJu9VSDpqS1QhnWt9lCpIdUKda/ZixsISV1zRJXrAgeK0KxeMEeJvecn2R4Q7bIe7tzW+b0gp4JRSN72+MSZ1e5ObSkadLa2+lt2zIvlCewrVAlanKRQ8KU8pCMuY1ZmV3jmkJmV7br1EVvQlbpXQ6SDiGZ7XBLuzQsIbJnorRVbfx0wSAZGBEmfzFz6Zj8c0+ejMBhYeD3ccqB1c7qWZarh0XKg3KJ5ynzNgp9qBPvK4maWGgVOqXIP2ZmJYk0p6Y6eX7jeK/JBbMUy/23c2WavWbJQu0uUb/j6qlTopP6F9iOiFbfxhuhQGiVBvT5TS+3RHWH9ylxlG5YLsqRZrqcBZUZR6rJTedWMn3Ew6U+U9R+NMkqFr0XUZNLk2Lbq4pR2TT6t5fMUaz0P8yVY0OwZFqBUJ7bqG7UMWSJ0vdgiVA9Jo6IyKA6aqFDa4bqu/fHeXKhvkSx945hxTbAQtbtd65NNTbKCCRxhqj+KpCg9chrLGVKx7GdH8xFzNrWL66S71nDkagHfFRbEC/z+jzhUB1vcaYagkiuw2+aoyPO69fEHNaqCDmgWRa8T6nA99Rwiu09rnTjoRFFLi/1aJEzUzrr1QPGlRtyhin2DifpgW1rSn/CinGGjCDpUBkV0iRaRiec63TC6ZxopUC2mscVofBMo8jjeMTMkXFzjxzhw3nE7VEi3z2bJc0MWNJNQDTbtga/HwMDAxy29Ui/TC1wjGovDwmdWJJNmdtcndrVPM5qHHnpiEKPK5xpuiCQpDNoURZZkDejVQTPjbvVRidyRyre46UYDw2nOo5BZckzeddyB/Ewpf2CYfJDNk3JSxPW/rUVpd8ETDiaJT47eSKUhpApej54Sll0VG+LmMO4zCaJPJsngvHap8OmV5SrjY7aJFcZAHqVkWutaZHSznUUfUmqwzpOku4Qb7LxWZEkM3oDm3OwX1+9wK+WO9d+qXCx+zajUdE7vZsy1kaOL57r05YzW7UyaCN7os5DYZLRxdTO0RkHUK+GpcJNSbzcK14lz32sbmngEeWyEEDKCSTIVg9FUvSPClLNeoXzXSaajU2j96L9plfqiJR6jeHMt1omWeC8y6459UjIjIrdobMqVlqOSV4hmu90mDVR87lcjsPe+t457m17+gXZMyw62XNNgSta/UYo42X4PVBFyIU0JE3jcxN4ohCnfyByRo1n9tl+QddZpVEy6eazxdL01+vVRB53Hpt1OGRa+fro2aMWWbekLkHEfFUwzxbUR4atsx6TrWLVkuIrkWV7jjtK9YlJrs+YrVvfjsFioIbDJUOxGcWZpAsiOQ5DMpV+sWfv3hX0HJsRKpZiPFs813ZArzb6iGNLxkH/KSXrIqaXzzFpTFgpkO/0hLvUHtgpph2ZGzpFK1bPjpCN1Dgn4i1+hzJr9EiU9verkWgrxg3notot5KpwgeGFLqdNGqPMNUvD0gTSLYEzUfOlzajQApSOD1Ya4QadOKmIxB+rfXV4sulz48qIms8RTvCsBmXVytBNgmmmwBmq+HJEpu0mcapzFm+6nQc/xTZtOMV6E0e43BsRivFL06bEPo+OEropL5rhQGEnmbwUL/YA9VGRefTAGKBtW6Lv1Ji4XAApZrFIlQXjt6zwDp1eVCmQqn+FM0H7nGKuT5oJ7W2H42uBCcei1LuTI0oB9ezNXw3LcYqaeee0QOTkvDJef/Fb0hGqm1OXtBU6tFH7BDMs3rDEKE/HZbHs7B5ZgWzz5azZhsCRqD84LMnEFocXO6vSQDLXuX5Yusky6ULXPZZNKUc9J+TujOms7g2bM7JHoyroEFeCxlORRKNz1oWxdILURWSiX+CdrF/k2aFZFfyrQlUQIZ3njMjY6N7wJJ1D3BkGK8UKnBuq18+nD2noT0q1kK7wnMhHNlimUOC23aYpdY/fpIIt4TMq+tzaqIvFcx33cqbqv1Ap8f7Ff2KRv9PMGgX1Et9FvIGSoBChfHLO3jUfLPTBQO1D2ijPaQ5HmCwIUywPyJX42qL/BHO76kKlUvTnCGabb1QdHXrYuinlgFdz5oa4aVUdTm0Zy0UKne+yUS2BNdFwOl5d2rx6rrNUkv4+nkiVJ4Zloa2xU2jviY3FhIWTJcVyMUuBPbCmWAxaNCa7obLkd66NCOOJ11okXuKy0bw5+WDA5KLdoVNKVoe1l803bYofEC50fcKWbgdc6Y4l/f393MMTzH1YfKVOymc5vAjsGFmHwni/Yk280FtSuSJ4pVCZM3Bkma6yr6eYGedFUrljNC4PJ+nciZhcWHER4KP9g7ploWSOZGPgy3P4POHgIbVU8wc8EYovzEeHrYpd0Jhk1BBvjzpGtspIFPK8nZRLQxLUq8J2CuPVuTGax5Lm1KY1b+2x5w+V6RaOVSdcxlGW526a834OB0O/Pq5OqsILEY7+dTEG4ciSzBdzh8g8sh4VsmDn4zsfKHz5URHJ3Nl2wJqkA7yhikX4v+aBxbqSBdYNHHnGy4YXuW03a0ja59uWvyl+9uhFIbMqlurURB7jo1gPcSaZXpTJds81ob1dJBC5sE5fvdJ3Jz/q5AoGSK2cMLDUNa6zvkYkXPUBr6/E+ajpFTHt165903v1l0BfNFDqs50nkk44g34Ti9J2Xb7M04J6MzKpVjt443Se69KCzvKRTX+TzXe5nbF0LA0v3bXNi3KQobpsZU01GGJJ0j3OEiTnVneoXzxxTs0Y6UTjp1yoRyFZ7rdHsTigypAaEB1WkmSbNZVmblEb18SfZvaQl2T4q/+4nPgz166J9W3vEz557qTasiM7nSt6Z0eoV8WVsoToTGDxEJvMQ9I9LJhrAajRgmGRT3n92pWqVqUhVJ5YjSd8eeaAlPY+q9a0StRjIiXMrHKJmkHzNhoZ2jEsSumJPNl026pfdpnj3e+qtPBa0Uyz5xzBUq8MKgJmtR3ZYsQoApbdT85L+E4pT1HIc97DGSTxQiJWd11IS6WRUU20gkKe63o+iiFwJWjeUxsdOku3OrrArTk7dMLGLvOa/mnuQmSj7UJ51qA9KmK5w7gcRUw4UgVu5zhTjR/L5rg0UCbXvF9+u/PcuRGiZKtx3CmGIF/sfc9zSn6Y19RcG+lchwOc8SognmU+aD+ZOsOyMS3XZUxmyPhVc3VjZ1f5CWTaXeQvdwG+XPtpebu6RIqWTY2RjdK8IOw34lba7JG0QaRQGFGw+IynqnHnWq3krnKG4QWu55RpIaahE8vcFDLtz7EGS4JIkt6a8OlVHu9IBykePu8xGZ6SabbLOeJ1Holk2jwxGh1T/2eEg54bFj21JAC1h0ssGahcUkxej6A6ntaoCOrXr41doE2L6JUv9jrKTTZ+wZ5jAkKZluecW5PN8bN8cdrRnPHaTxWKvcGshZJPD5CBgv55Znb1cb384XLPBSMVOxq3LHMLnlJIE0w3vsYSr3GcLcksXLY1j2fO5cMy+cvbbRNn1xonzSoTx0MWjCA+wrmXL/XoFk6sEghm2TwTHxkQh/8PbybpcofJHRyRZfHcYFTwBZlsu99Qb/uB9vjUAuyePaXaSLjIZT1LDurdRyidZ/EXxXNtwn6NKaOFQjWe8VFMQbzY/aBaVWilYXVUCrVrvFvPL3t8ImeWzRBKN3jIHq1+RC7NPSKvtZVn+/btwtsOndBecfSgS27/9FCNhphylij1CSxugrOEUw1P85K1QSBB+2HopIJK2touVeUsq9LhZAPgQVazWL7zOp3qmCLzmri45Nmj3Tr2bnYxKfaZNCxK4Yluqc/hzK6JbtldbeKuY9LqkYXzjC9M+oFtS/LM6YfXGaL00lc3bb19Scp5AjVLPNfuEEucOoHi3sriLW3oP63IVKvU5+CwaHnU7kxvmbamdimXB1HNC4JC5yxZqJ+xuMlbNM/5F45iB2RNGE/FQzQNazpdpbIsDvHEa9w3zA9sjKipeN+21VuixNgodstZS12Bk+r0q924HPvcpRNcVaj2uznDZUCu2OW6U3v+PN9JBVSPRkpwycIWI+eJ5BzJEu9HHBmOwJJglYnDkct08mcNkDijlG33JHZ+PY2GOn30CBAsxpEVtWmRvcIlyFogG/cmd7WqkiZXOQklau1mi5QZksyw3hA8ASXg/9q2gF1tnIdgmmUPR6oRsqKcXkpX+tHr+FMwpMUXipFMHvKFyT8Pm5QzGz3/0aKBEwDyNs3pKwTwsKaf2A3S7NEtMw8MBIoGjOhGnSXCuil505hj2/QZ3lk2nt8toT4ysHM4tnCyLa6LlflEZk9ptZQjWy7ijlZ84FAfMek5QbwfcUBpZ9NsjMvnzncA1mQ9YPEQJZec3yAUPr2UJhyv8Yw3TQdkRwUf0G2Mp9nUJsVTZtU5tGxb4uI0IXupeK7rEEei8RmlEr9YEmNInHJsu3BoR2WRYKDcLe5g2UH9utgepSKvI+IppiCVYt4bN576p6v2/hY4TyjwUilwP8yNClCWbHnTsy0vF/+PK02a6tPGhRLGlqAMLHEKIJttu2na7h4L5MahlRfsLZphtZslWRM1Ft3LLMHK3tWH1qv5TsxdIxauCPx+knfNauLGhiz8f+1dB1iT17sPe09F9t7DMJKwCZswQwiBEDYhCSPMsMOI7L2RLagICAKKIghIqbtqrdZRW632amtdrUWrVev47nfyj/y12vvc+9x7+++/5fc854Gc8535veec97znfd+vzJQ+2aRsXh2jpZHqa6+T4z8uEY+ERCJ0LhNaUwPhlyrvWZ9MciiN6fNvoHFsC/EeG5IcdYAqp2k5WV2/hNy8PtkWEsSvh4wYtvV1i3s8MGledYI42afr4y0g03JKq119siaow6k+Rdu2ghFglhNwQJSoDKnFmJyuOzTqBXM9ohl7+70sM9z3S5LUnyqmOD2zrqUOxGwuIFB6cgjErtwCo8KQT8SSbV/xxxq9VknBTrAGe4ykKMb6ImEGF/gZJhB/uP4p40I8FrQL152hrJrjp48qDKEIR2ieF03eCCnn+s0YlNO0vRvTQ9QzPe4Ixhq9UM1y7SMNVXJFTQBHrl3UUE+07hWM1oeUsnE/BmzdRLGspISJ0syf84WrQIpxpvszZjo9SFvZqt69uWoqOXhDxSTHOD6y9l3hDGtINN2pJ3V2TCF9rJWqQjG4JRuw4XF0f0Hr4sod7gUtgEMNzVSItnGOLxsDCSbb3pVKdbaFx3iDRz6hVi5I5YF4lDGkmuF1wLc+OSq0FabMLRyGRSF5Wopq/YI/weI1zIGtmJdSGuxrP3yHA9R+LfPxwyJkjV/gE9MrjQL8Oef6xG6fTtZmj82ZW/C9uZ347txOrXLyeWF4oxYIUn1kXRjMBqdmGZIqiZ+o8lwx2w0yrIwu4hXJRdJMj71tGWVJnKAMyRDVd9QuTeIJzRkNEpFGDwQp+ucNisk+IR0cSW9ODANbFrmIKaEMIYspweacmA96xAA49/wnS0yO1yg/WRWSYNr9qlhC5GooraulSmkWE3ZJp9pCiOB1EAIvDzmVkPb3XD5kD2gbz6F7yKY5HUekICEEUe0WwkvaGo7X8C6hDIu6ykFyMeaQ3iZSO7jTiZisUNYrJ+s6NDKDrMsiDkjEGLwWjzM65diY7M050CdP6Mim+9Ul9DnlBTGlo8zQiime2kC5xK2vAIlqiN++LtbktXig0i/uldS+0gMTrutDNBr4ycqQRCIakstwy0WXx6qH9XNUNlbH6YT2cwgGSbbTwr4yrwwz3K7AtEWC361Iy8ERTwMGZkE0Vvc5vLE+s62K7onuLQqNGuAQCe3pZeq5PpeF0+1eCSRavRKmoz+SiLXaKJWDw4vRUK/5QpUg3UTM0aRdLZERQxw1t8YE1XXproZCsRbhAnHmd/lz7CFEklXfnvv3pSr2bcMpMpDnxMO1X6KyCIOU2iJ97kDDMKqKWodIsNmLyHOGxFIc/sOzNdUrZLAiUYmB+VHIRwYyTcUuRcPtDRupVfEaYKlrFhGMpTOxJeLpThAiBX4P8ZYpYLFVTnAKRPjLX1NLsn2F72XXpy8Prr5fi9pYfe1CwglJmMETDDdYLpsbMoTzyOgmWdeIx+g9FowxhbTT3CdDWtIiST1F+MDNrFSjgsAl+HT7UigZDcmy3B6rFwW9c7J+G0bskGI5GvqpSIQuZF6MP0/syy30rInzcS2LxnvBjGR4J8vfuS6qWCXb/aoIzMSsD9P5grGljFE3P+EgQ9YeE43Vh1RZ7t+bl4RkIkh6JqbFoRiPuoTCdRmO14FInC8RfV+zkEDJ2tqNVUu03SMcpvqLUwV55MSdO6sbFNwfIZ2SwDxEKgZCJFtCiFCdhPKrh9TdGhkjUnhFSJ6o8cixmtrOXVfnmpT1OUQd6TQ3T0024bBMph0kQTW+6tnIiLx49+Iqw9iwf5uBUoL9bpEE1AsE3RxChGtC2hnu3wZsLsjljI//jzQ//9ewgieKeqrLVVFfOXiBNr/n3JSSz0tCoJuYTHUm9r6AnxwkQDWCZHO8uq+8vsI1ppLOxYUKRxud4g9RgcSjzX4RpVpHHblxQy5puLpEMVzvtiBe/oVcov0Vx5akPuJQST26Om6rUprnYZkk5x8FQtUhGYLiFVp/USw8YdatS/HLEou2eihGVr8tSNa8pMzymMA1p1bb1tNa1qdgzwrFmkB8ZJ1fjFleSTMXTyq5bYphCgbp/iBM1oXk6eiL5uURXQF9+XV2tYlDOtn4Mwp0m4cCAXKQDtXiq+TRxpRPoVviQK2T3Jrhhczzn5aMt3oqGm26Ih5tfl2WavO1eprXVybF5MvqBX63hekWz0Xp6P2aLLwl2CQ1c3wXpeLNID6C4qP1iQ7zLk3MOreWtHr1PPw++WTnr4TCNH/hpxnBXB32pHCBvxG2mhmuxLD+UYSw4YVxuusoY1c7VwwI8PTpU11bpkMvX8A6SDjB5qVCWWR07FCtk1E+/pw4vOELklR+1CokHPTpymr2bM/o1CkkLkjRMdf4Saov+GnGkAAdNchc6FdJGG9MViEZ3pb3Uv45siu3a+LepdWJ71iZYCIabrifD36eP9rsnma6swtMxHyV05uRhIbEflWmy4pgxMZfRMLNb8jEWn+tynT/0rQw5IJREemaRKb9U7lMlydmbFKLPbwo84p8B0acIJpouPEjfldJSDvS4jJpCyeXPtqqG76jXNO7O1uXPMjRSp7o0AwYLivWZth9K+QiC2mleHwVMd0eY5GAihfAST+TgCfTukJ8Fa9ILkJnWl3hk+kpCY/1kApOfbj1+ExoUFN6u6SH4o8qwYYXOId3+ect9shIOMp2SYZpPhOnWt2XTXFpBpsyr4j3sHDnG1u7FOdxfl9ZeOwsIbE831QQvwxvKoyp5hz9RNtvEB5CEMJPAbLI88+HaVEMHivhsIZ0vEI08gQiXAtCBOncQRB07eB4Ub9KKlsIr/5EKEwDkk+yvoCpie0I3FJQZ1RKHhNPd7kgykA/FCCpQarxqC8J7bkxkdvrNxiUUtpUkm1XhPDyNxAkzc/VMr3HfDqz6u3bU7asy8FdF4rUh2QpRt/E97HTZq98riZJxxQioo0ggQhDSCoO/alFaVRPQG9+k2VN3Lhmjt/nMuGGK0L+spB6CvYhPD+zQX8AbScPVYYiS4MXReMtX4hGWfwkFon5RpLucF01xeWWbr7/l9Is7G0RJua1Wq7P8Y1l4SigwGNcRDgjFqoNiYRpP1TLxx/z6c5ucmhKalXJ8jkgzrC5yhdj+oKPagAJUHS2fPro1vqGj3biFCm6pyWClCATlt8eXFPuqugIbDj8ccg9fIlISICsd92ykIiduHQSa5XjvyDgtwESDdX+SSfHb8G3L6/RpTO9S6eUtCyZ7vQtMBzngxd4SapJHjz+Euo0+0A+Z5EvlalIyKE5uYcwVbVq1qAEb1Kymc4XhRiGkEyo5mnWUK07/F74OdOdtq518TtkE2zvi0QY/CwWYXpDnGp/fUOax3dGxcFfq7EDbgtnYiHJTJeXinm+XBHVh6CZha+Vp2FeC4SqQaJRWs/F4kzuCEeaXBOOMP0GDtfFwvWui4Zp3BUK13khFW8JaaS5j3QsTWgCu5v1LPd2USYQ2eu8FiLrfC8Qbf6FdDL2yw0ZXnclUu1eIuhGEH+wxi1Llg+Zs7TbVz/R4aAozDTbZvvu6/ns0KpNGHfDyXTOAcaniHgDeMNRSwa+3UhtrFyZYLXvhfzkXq6LR1/BNiX2hgyX1RqWEEcF463OCjIwPwvCG55MlMFNr1paXsvB6VV3THCZAuShcpZhgf9/ICiqECJECTLN9Rmau3rpHdHfH4LgkSob9ypqNzrJ4YA7O3h75PbKVRc1sXvbrXwqY+vQdLv96BLSGKY9bfXuw64jGWuV59NqleI877yJMunWngZktvzth0cN7Ar8q7RTHU4rp7n9bLaJ8hRTHXvPtirurH0NbS+qLHKrWQp2l0uG5whnd2f4xZWb8ohYLEYm3qZNK8nuiFaG22P9QiJkURr5EFkW+UAvH39DN8d70aAgsM6jOd0Y1B23vczcgk3uNczCfaaT4bViVBTy68bSiHuY0ujP7MtiptBFwf0WyQ67fTeFj+bs7onae+vTVRll1vKkmQELx9xAR7cpMuxHlJOct0jF22cG9RUmuDbQp8SiDR8jAhQuIVwlic7jHZKB/cXBFnl+Yzqp2FuGhQTIsiz6sU1l3LeYipjPUJvCp2yKAkcwVZQFZFVM38amJB2fpgwH6xz8EDye+0Jq6ZnNy7tXVREfP36sFFkdx7SAx2xjCWnBtIru1Xf8uDypJTscxcLt1c10v69bRHyNqoh9bFMVdxdTHfcppjxit3URYQJVGHAQme2fD9Si8+f7vVxY+O2ODI+pzOGahPG7F5V4VSCSx+uUbAqDN1mVEI+YFwSOBDckrooOb0OQlk9jerRqknODAs1hSCXRZUg63qbQqy4lOqgrt0Em1viePAP13IoT2QBz4e9tOMdf3xTzbUuLN8r2OWVMc/gYlxNaNHbx+HtiB4DOc/NmAZzoCiu68zy2LOpg2kw3I76NRUZneOxDVVLmLOvpXPHWGyQd3ooMaktvsaE7H/Bk4HL6Lhx2SNpawbChOo0FZIf0TV075zh2/LiYqrNCiDTV9BMBBvqlSJL9rvVMN66V9odw+OF3BuEVsQWWCfaLJoWEGZOqaK42DkynfLu/OmkRxCZVoxIcljD5hAnvhmTuPQ2YnKUz3TZuuYFNaJb3IetC8ih8gjMDabRBjoVFQWC7YbbHKe0s3CPjYvJzZGnEHauKyM/NKsKnDQoCBpBM1z3enIiJtB2N4cnLHZIbCgI81dMcWnWYtme1MjxfGbBJkHlF1BNkZdQj7Xz8TYNs7wUMm1jYurSVq82HbGA4GhQRt2qne3ymxfJ+YlJKeWFTR7tnW0e7bF0eNW2V678NnedzwKOBsUQc5MSCdgGAdqctDmGUmdh02Rh04waGy7hsosugTBwmi9CWTlFLsZ4QizOCtAvwV1ENCZ6dN47IkXpyQozhE4FWuvt3umziS1Rl7CN0ecx3qLKoE9aVsRPWFRE7ULnec5gMj3yg8NJ35iDSOQPXYJPiOhfQlMKO3b15VaSWN14jgyomFZmXEA4ZZXoMelXGGMEbiHRwU2qocZrHknaGxw/6+YRXVhXRj+DwrV19/AnbeupOJDtwh3mqy37XkqA4YOcUXJ9sYxmL7nUuCJolDXCSwRjyqkDY9zNV0NWRjSi2z6JLtndX/Xw/9o2z2KMwM2dfHkVWoFpUwAznyPpkt2HJRIdi87KwUDNOaIcwDQVJpjhCChmev3uH49nEjLErD582yXY/YMjCLupluh3RZeFOvgl66a4njVKdjhhkuO4zZQc1oKoTuOryAJgOlrtxSXCfOt36c5Vkh5fqeb6Qbi7+e+QmypRdQ3y/9SbitGWi447Qaip2+MZ5VFA1rcqaZr+XVEWrbvxknzmvGO579K2MIlrk+cxZFvkvYth+3DU3f1uDgXWeb6Mxy/WCVjbuiXlpxFMMvEagyiLOmnNC9pqUELeYZbpPYvMCdjK3lcf0fLr8jqHnyV9/wbqwAxeE8HKQbDzyhVV1dDqoi5f8x+HIjfNyw2c+QjVOd3sPLO2yn/vi9DuX3BMnFvRbJrs8x44fsF5ZWVm9nJ69clihe2a7Tetkn/c0vDh8/fqfmjHbzyzrhfdxws2Lwir1conbdLL8tzhUUtNbj+22v/n0rt62uWG7pqlur+6Pd2/s4W0G51duyOXDcf6d2fnI8qge/YLgHcYcci+2mVmYMtbmd/P1E1W4PW+sboX7zsyjaDuqYx1r6DW6uYQdShm4fvO8YGbDnn7Ln6CnWltmxx1b9g94Dnz2sf74xXFhYkehpnKYnqeAqwCe3M7yHzl/Eg1PCOCahlt/ymSnmyHbdxGoGksR1c7q8OyKQJ1Ze7pt/Lvys23r6T2GhSGjyGJKR3BnbszkF8fMzj/4FjlwesG3fmkHFhz/gUZcxWSnbdNEj8cBeDEGbQXlAMxeuSLSfnK/Qf3BUZ/GmUHvmsleNRAPPyNYuH+7G7GPXWBZHr1ZN584ZFoY2k7qzA07dvum2aHb16zbp7f4VwxWWIAylh99ub5tftChYXe/e9/xab1Z3qkTANTXeWqPZc38EKlxYZvztpNT604+vqtEqI1zRlgiAixSPUnlSzuxcN+B2yCufLzz8zlDk3y/fiEfqSeqMabfhQ2WMznLy++5ugDGZC0HdyGLZvqI+Utb8XWnp7jGih8C6NPolaO6TUujXmX7unwb93dv7Ppk1qT55D5c66Epr54je9+RHS8+uCbTf3QPunlfL65zX7/ZAZgRGb0wq9u4p9u1e34nduHyGe49FVzuevs62oB0GvapSrZ3ixzD4Xdl0IBjHjg+trF6bLNf9fSAG7D45yWBcoRaJjvNWvcOBOy6dNTpCEx/vCTEzdcr8n37tlo37tkSNHR20WXqu5NcLhvOww88EjBG6iJtq6gN2jmEYZjueh2rqMkjlz62vPN0Rad335BT7e4u35blnWYQ9I/7JeC6J2V6M9GnPWeTOSeqX7eAOAJo260uKTd3tM3nzP0bq3dwcB2i24/Nm4V0sWPRlTGN+hzyDuNNYT3OdYkZrR+No75+9lB/89l5r9ZPpgM7j84ZAu2l7NE6XQkfCU+Ep0CQVRHZf+zUUSBqUoIDl7YZezqwshTNedGgDRCykHgucLCSq3UH+kPdWo4N7MjLsqumteuzSds3FoW2hveUhHz57JHRtZ8fILtnt3rVbmtCA422T374Qbp9Vz+6fXrAc+/5ZSMgqgblAFyB6bJjfocFZ7qPWAhvBK2fDHFpq3V2Vjp9rBlP6C4osiyL7dWBmTGD3KC62IHiwOvPHhrOf3XWom2i06NpV68pMBYF60rLVI9j59xOj4nzp4AN2eqiCKQrO88tm7VN9vu1Tfc5HL1xWWXx1jUN5QhjJ4SvZKBZMSmo89SiJfze1d/QduR0r7YS1WpAEK8MqSVhV6wrqFRuYR/AxKVjmq3Hp5yLFwZwVfNDXuVw39lzvbg3oXRuAFc3P+rV9PEup3M/3/6nwgQMMJb9e8YM8VXMOPtaRpVtPa3epzmdPgJv0nBb9KZOLTjXj7a7dMwMgvcis/vsvAVYA+v3bLFpgJlIXjFcgLnRPDeMq58Z9GtaHF4Vl4P1kj7ZRHNoZdaBd6XF8ut3rqYn7bl0zHIFeqrTt3+HQwe8Jhy4epyr2QeUMICLopg2jhFhoCBdnW5+RthPHj7dBBzxG6r81/lvgwcAfKKAHwRe1DvgpXEX+zd4O89v0wCA2MKZEyOqkOwsqZjlKQH8+rx5jpdXgOeWezUvKCsVHiRUD0NcgRMiicyKlPCebQX53tuJQRnAJQypMVNMAfgCgusw4YQAFdt36uD95YsdqHbTo6KmxAIUHqimOF20a0rOD+0sMAtsTteK78j3BhbYQnSLX4Uj9J7YFATULd24sLqYgvzAyh2oZcN1wO3ylOD5S+OCV8/qOIC/b/9+G7y0d54HAL/hySkCbE3AmClz/MWBuw9e2moe7sMwwP+88KE6QDwwiuOmH372g4k3J6xFHCd3RzLC7AfDktB2QlumtVNDkjp7VxPaeFPwZiE68rkwcf0zyyT7kf03LoNL8vdoAZTFKxO05b/FHf3zeQ74+3b4vbFZTXvr9z/iOBz+ns8WnJ2r4+bVU1y+8GlJDEZw3vVZ91vwynhvvAHeSvu9MfxgPkDbq3QX6SkRwuG87WZltT5eFBcgDtA2sj5S4g1tp/5jTnxwHAFt28J1AHr7wPx5u22iQHlFI0zvgDBRaUU+wfYielM4k9xdqOtRw9AI2JxFVGH7fSwcqftCnqByO6Auvq7r0olVESwogwMzZP5cuguRRL1FdwC8OlbH4Le/3wYv/oN959I2mNeAthn+4sBFEy/5nTJ54b+q4533OQH3RZeK6RaO0H0gkWDzAF0V1ZQ2Xo0yZ5NUY3aUOhiUh2+TiDH7VTJA4bFjPmGYvbBz1Sjzt+CV/abu/yq816436IHXhZhBjigIwK0PL/qdPvJ+r9aFgP65BgK8lQb6uZoG/gc2kaSxRi7tAbr4AO2t1lF3dEqXOVBBs8klbpFKtr4hGKf3SipE59ugmoQEYPPEzbSG/x+wYe7WvSyyQIuJvSlBR0HCdKtbogybkzKJjsek6daXhWMtXsgxHe5iSkg9OXubgAeEd1SH/50x+/oH6ZDmZIp+qut56VQ7SJBh+ZNInMUZqUT7o9KxNudEoiweSTGsn22Ej/ERDUw8zB39jyz6/yigakJk7OrjNznX0mYDGpJSgfU1L+lvC5hOBbYdGdfwr4qpNGZ53ZNLsIaE45A3xGnWxyQT7I+J0qyuCsYjIcUUhwceJeTWrC2VJldg7peX/d8eHcvLkuHtGQwUh/SlFNMOEqEif5Kk25yWSrA7Ik5DXRBhoJ7JJNm9sMj23UlpSHME30biZf3Lo+CjUXefhsQZWYrxY0SUHqSQjv3RuSyqu3yq9XclE2v4P0T5sRlNbHNKtG6u/5AGy+uCMsvzoTLL66lGNu6WdhbuoFVRaEHZge3mYBLzsvxlUH1kWM6rv4BgWknp0iv0Pwn3/54Ky/OZaprnim4a7jSaQ2lIHG7Ace2i/oQA6s/u7VHr9IuCwhwa6eHnbr8r0vi7YwDm9EO72MmW7KDdujneX6myPJ+osHBP1TM9bmqmu83blkazG4/v/2Pcl/zB+AaClBKAX78c7w6NDLcT6iyvB8qZns+V0lzva2Z7HkOWUWpjdjY5AO6fl+VvgYqjuy3I3Xm1phluHxuyPGadamilnIURIL1YPcGu4Q/A0vXLhmnj7WFO9fQC83LKJvJAcUr94qjL1MnFVY2YvyqOfX9ds2FpDB/azc4AffdsTS0ont0aNPfN5Xc+RfFnA3CCCMQ+QFTBi1rDbwDk9pOfH7LK2NUe41AXX4yuiuZQt1Ukth3c5fR3EKGMHT+oWjrT7+fbkZ6zsTSszKslJYszO+D7zeO7f8uT8M3XN8UOf/eFwbbzix47Pz+EPXHn/NqHBP9VAI45qf21Ut6tqdL15+a5biV4SX95wH0V5iyPS4K+A1f6YKHiJf258RtZ9xreB+DigeF2xBBHGrxf8BkDOO4vd2L/PQDaBjSNqmHI8D5P8sfamfyJAGgBDuAul/sdJF70GtawhjWsYQ1rWMMa1rCGNaxhDWtYwxrWsIY/AxCI/wSAKHKey1xnswAAAABJRU5ErkJggg==;" vertex="1" parent="1">
          <mxGeometry x="70" y="50" width="200" height="50" as="geometry" />
        </mxCell>
        <mxCell id="PJQUIRJuqjllULaBDUKF-4" value="" style="shape=image;verticalLabelPosition=bottom;labelBackgroundColor=default;verticalAlign=top;aspect=fixed;imageAspect=0;image=data:image/png,iVBORw0KGgoAAAANSUhEUgAAAZwAAABNCAYAAACSVNIHAAAAAXNSR0IArs4c6QAAAARnQU1BAACxjwv8YQUAAAAJcEhZcwAAFxEAABcRAcom8z8AADpISURBVHhe7V0HWBVHF31iN3YTo8aYYokmppj2p2rsvcYaNfbee0UUC00RVFDsXVBEQFFRQbH3ThMbFkBFEQXFev57Z/fBq7APRUmyx+9+T2Z3Znan3DP3TlkN3hCuJFzB5ws/h2aGBhrH/4hM12BC4AS5BFSoUKHivw2VcLJSVMJRoUKFilSohJOVohKOChUqVKRCJZysFJVwVKhQoSIVKuFkpaiEo0KFChWpUAknK0UlHBUqVKhIhUo4WSkq4ahQoUJFKlTCyUrJpoRzOPwy2tktRaMpC1BnohtWBx+Vr5hH9O17+MtxuYjTaPICuPoFy1fM4+ateAyYtw71beajzoR5mLRmK1KePpOvKsP2Y6HoPHMlGk/xQNNpi/Sksa0H2jksg9ee43hsYbqmsOPYeQyfvx5NbBca5WVOGtFzdXRajoVb9uLW/QdySspx9vINdHRcJtIxlb4SaUjl29d9PRIfpcippo+zV2+iLuUn1aUHusxejbsPkuSrGeNa/H3UmDRf1AnLsh2H5CsZw3pVABrQ8/42fh6GLNmEpEeP5Svp4/qde2jnvAq1rd2lerdbgtArN+WrGePRk6eijLgtsjiuo7aY8kS+qgzHI69gHD1zCyrzJlOVtRG+70/qa5NXbcaZKzfklJRj5c7DqGfthqZTTaefoVC8+lRXtp6ByvrIy5dYsfOQqCMu52bUF9buOSZfVACK7+Ifgl/GzhH5tp21EncS09qWSjhZKdmUcK7E3UWZjhOgqd4Dmho9UWPkrAwVzsJtB6Cp2w+a+v2hqdUb3/S2xQ0iofTgSQ01T6OB0NTpS/n0wJDFPtQeX8pXMwA3/K37ULTZUCnfhgNIKC09obB6/ZCb/j+ZFJmlZKbFk2fPMG/jLpRoPkykZzovc0L3NuDn6I/GRKqXYm7LqSrDrlMReKflcCqjPlI6FuUtS+0+KNnLFvEPk+VU08ee05Gwqkv1yPXC9Ul59ybSSVJIWFHX46g+e0n1UrMXxi/aKF/JGA3GzYHmj56i7dWkdndPIdFdoDw/6jxRtFdRRjV7o8WEuYi7e1++I33E02Dgw44Un55X81t3/DXZnQhH2fsyvPafQqXO1GdS26LSepLvo7Ku0M0Ge06Gyykqw+Rlm6D5vTu1Daoni/KVpQFJzZ74lQaWisid+t0Yd0+qHypnbo+1++KDDuOw83iYfEP6ePHiBfrRwEDzSzdR1mXajsHVW3flqyrhZK1kY5datzlrhJLUNB0iGmbgyQj5imnUHj9XUk6sHJsORu4mQ7Ay6Ih81RgpNKL8m6wPVgyaxoPw3l/jcPzCVflqxoi8egMV/hpLHZU6eAvKk9IwkkYkzYmQqGMUpecKOZP+O5hDCCngQtoOqs2L0zbMz5TwfVyG/Bz0rl2cVohOpxTBlHcx6pSaJoOlsm1GaSnNWyukzL4ZNgsJyY/kVNPH3jMXULA51yPlpc2T0pi01Fe+I31cunELOVnx8mCAFJrNMmXxGM1otC7aHbWlhkQ+CQoJJ4ryrNxjiqQE+Zlb0OCAnrntjCV4rMBSYcIp39WGypbqmAi6l/0SPKU2qgSXYu6gHOdNylfTkvKl9m9R+xB1S/GILL8fYIe4e4lyyhlj+kp/aRDE78vCaVnSPvheGiD+YgHhTPBYT8Qq93UWKueKXSchMjpGvsk8eDg5bP4Gqd9TWZfvMgnRt1XCeTOSjQkn+GQY8rYeKSkNUh4jFqyXrxjjQOglFP6T7m1CjVfbCGv1QZspC+U7jHE+OhZF2oySOggpiXa2C/Ds+XP5asZw3hhEz0UdnDpZTsqvcq+pRlKl9zTk4zy4I1KnGu6+3iJlr4XDuu1i1KtpNRy5W49C+Z62lLZxfqakat9pKNlxfCrxle8xGdFx8XLKGYMJp3g7iXByUv7laBRfpc80k3mZks9IKpAi7T17FR4odE8ZEQ7ly/m/03gw5vjtke8yD0E4TBrcdoikLSYcHri8KuGwcP6UzrBlfniZQb0z4VToNlkoQVaglhCOV8gJ5OeBCA2yON9SpHyrKqyjz+m+D6l9WHH7IMlN5B54PFROOWOkEg7Fzf/nCGElcZqm8jInn3axRo+5a5GsxIUoCIcIg+tXW84s9fuh6mAHXL6TvlcjlXCoP6qE86YlGxPOg+THqDVyltQBSar1mYrbCabnICYv90UONuXZ5cQdTzTA/qhMDflitGm/tEfAfqnRklKwIqXkGbhfvpIx2LVTbxxbVJQnPVu9CW6IunlbSCQpHpYLN2/hCpnqA+fTaIxJjZ6vPHVGXfNdGV5i1MKNYtTLI9fSvWwRRCRwOfZOal7m5AI9z/Xb99DPzQuan7uIEWzJDmNx7rJyX70gnPZEOKRIC5FC8fDfLebLTOVnTsJJrlGcFwrdlUaEw+XHv1RPeVuOgO+Rc/KdppEtCIetMm6PTAIUxnNo6eFVCGfZlhCy6CXLomS7UfAJOY4b8fcRIZe/OeHrN+m+WRt3iTyFO/CPXpjlt1tOOWMIwmF3Gj13xS4TEXTsPK7FJ5jMz5yEX4+j50hQ5s7WWjhawhFlLLcPGgB2Igv+fpJ5S5rzGMr9QSWctyDZmHAY9jyyJ0tFGnkNxfq9J+UraWAf+0+jZktKghpdDuroOYR5PxT5yGR38w2S70zDw8dP0MDaXXJRkRIv2WEcYi1wIxwKu0QER3FZqdCoe0lAiHzFGCFnIlGELTVWnkQa3pZMcAroEA51rI/6z6BnVTYvoIU3Kej6E91Qf4oHulFnu2YB6aUSDpVvUbIiAxX6yl8FeoTTagRKdpogKRWuV1Jun5N1dzadCfm3TThW1A5Ld7eBhqxR8cxEBO+Rleh3+Kx8tzFehXBWEOHk4fKhd/2g/WicDI2SryjDoYgraG63FPVtF6LetMXYlAGh60IQDpcXvXcVsp4vXsvYrfVKYMJZSBaK3N9L0KCydCey4NmNyORTtx9GeXjjxTPT86VsaQ6bt04iWJVw3rBkc8I5c+kGCrPFwoqHFEjraYvkK2nwoc4h7uEOR/IHKYmqpJCEf5gaX+PJC5D0WH/y9eDZCOTjERETBt3Ta846PLfA1TV1dQA1eBrJUn4lu07CmavmlV/CwyT8NnymRG70DgNnLbPQrfYSo3UIp2zfaYiKuSVfy3oYEk7A0fPylaxDKuFwnVI9OfkGo8mUBaKuxEiWnqXG6NlmF4W8VcKp1w9W1PY4zxHL/KR6Z0VIFu5Hf09E6MVrcgx9vC7CKUOEcyiTc4WZQRrhDEQlsnDCLkbLV7IIqRYOtQXSCz+NdYVX0GGUYJc6zwdRny5Avx7pWGnjV2yWnpnKSyWcNynZnHCSiShaTV0oNS5qHOX+GoeL0WnKnUmip+taaVURdbhSHcYKi6LPXE+pQVHYO2Qd7Qu/LMeQMHbRRuRg1wc12ELUQAMOnpGvZIx7D5Px5TAiEFkxdLMjxfA0fcVgs4oaOI+o6HnKdZuEiGux8hUlyF6Es+1NEw6Jz+EzRC538f1Ae+E2ERPcVJ4dbT3wgAjdEG+bcHhg4ey9QyxM6TNzhVT3bOlQ+O80+GB3qCH+0YTDLjXqT5V72CAiE0urLYIgHHkOh965EvVFdtW6bgqm9yfCaU6DSCoH9iqs3nNcjqSPcUw43P9VwnnDks0Jh7HAf48YMTI55KbOOG/jTvkKKZaYO/iq73TRcLijVh8/F8/JlPYMPop8PAnKCocUtYPndjkGcDchEV8PcZTikFL5daiT4qWrDL8Dp1CAlQc19lzU6H33n5KvmMdRGtW+w241fg/Kd4EJN595WEY4T589xxUql4hrcYi4biBEdJfpGi+zVorURQM0aizQaji6z1gE+5V+mL58U7piu9gbc722C9+8pTAknGU0gmXsofAy7cdKdcdWAyn3ETR4ePFC3/f/1gmHlNmk5X4i/Ba1LWHhslJm64wIsxkNou4ZzDO8KcJh5Xztzj3RFozah2gjcWJQpRSShUPvTPmX6DAOg1xXw0FB+5hMVor37qN4+tzCRTS6Fg7lWZ76Mr8TS6e566S6475PFmWZjuNw4oKxxaUSztuSfwDhXKCOUbk7dURuIHX7iQ1fj2WLYvXOQ0RCPKqRJv6d1waI8DuJD/E+NSTReUlqjHZGYrK0QsrnwEkUbkXKit10v3fHuGWSYlCKtg7LU5V/GbK4VtEznLx4HYcjrpiUE0Q2O4+ew/+Y5Ph5qEP8QCT3THFHs4xwomNu44uuE6WOx++oK1R+FbvRKNQCCyuVcFihscKUSTNDqdkbHxLJno64JKekHOYIh7Fu9zExbybcJ0w6pMhdSeHqIjsQjrVOnueu3kTFnnStdm/J0uF9Re7rxQS2Fm+KcJJTUlBzwjxpWbBh++A06Nlnb854JaAWqYTDbm15vkqvHZiTX7uiw4wlFq0MFRCEk2bhVKB+pd0wyqsga09yl/qK7Hr9ifraVYNVmSrhvC35BxAOz3e0c1qZqnBLUEPaHyopsVrcuLjhNR2MoqQUw65cF+GMPrw6TFY6OVuOwN5z0kRqF5c10goVUpzFKa2M9vfoIvpWPKoKpULpthxGI/4R+LDzBHzYdRLKdrE2KeVIKnS1RhEa/QlXECkUJqqTkUr3/FhGOFdv3kKlvydIHYrnqISQ4mXlTB3wUyLv8FchHB49GioqU0Ij+Q/ajsbp8ItySsqRHuEwbMhiFcTH+TSheqR8PPelLSjJboTD4AUDRbXL8Om5CzQZgjm+afMMb4xwHqfgN96zxn1Ar32Q8P8pf2dLCYffmcmG2wenodsOzEn1HmhvvzSThJNm4egSDuMitf9fR8wSgyvJouyHP6d4IF6nHv/dhOPwmsVUHpmVfwDhMNaHHEchVtbcKaihztywU+yYz9mMwrizUONpa7cEz3VGjEwwOTgON25SHoPnbxBxPtNaS6SQak+cp/joEsaqXYeRV9sxtWnzcmzZh52usEJgpc/WGClLZ+8012D6sNzC+ZwJp1YfsZJOrKbj5yRy5A7GI+1XsXDykNIs0H5MxkL38qqlc5H682dKkBHhcC33470UYiRLZVq3Pz4i4j8qz9VdJqWT3QiH4bHjEPKwdcb1QZZAQbIKNsnzh3fJKn8ThMMLaGrSe/ESaNE+GpDIdStIg/4/28BiTA+6hGNFbSxfu9Gm24OhUB/oPns1nj3LBOFoV6nRsxoSDuNM1DVUZg8H38P9lQY/A9298Fwmt7H/WsKxI5mmUKbqiKnrWrEnMZVXZuQfQji37t3HFwPtRCflRtJ4wlyMJrM6t44C9zZYMs0utHra0weog3/c3w4jFnqjQAtqgNRQc1LHdvFKm9vJCE+oUXd0XC4ar1DelGYOsqxyklKzIgLKSPg+MSoXLpW+qEudPlHRznvLCCfxYTJW0AjVbf02LPHdhcW+QWhkPY/KTepgmSIcUhAcl9/Bbv0O3LybqEDu41bCAzGnZCkyIhxGPCnoZjbzRVmKMqV6/rbPVETH3sFtyj87Eg6DFXQOXuHIipBXrnUcj/1EEE+fPUOl7hQ/iwmHz2zz23sM89dvxyKfnVjmF4x+jkuRl8uQy4vSsZhweMBFeVfoNgl7TkeYaAsmJP4+7j2k9q9g640eMrBwtNhMFmVxnZVrOWgA5iAP8mzWbv2XEQ5ZIrkdc6O1Z2tM3jUZNrtsXotwWuIZXxfp/EMIhzGIXWRixDIMBVuPRDF2T/CorMkgfNHbFjF3jCennbx2SOexMUG0Gg4rnX0RpWjUzsfTKMWpi9fxLscn0shBZFNz/By4+u6G2+YQzFMg8wP2os+sFdJiBhrlFqTOvfWYkh3dlhGOKczwCoQ4o4uU2asSzqJtB+QrWQclhMO4dPO2WPQhuTjp/tq98af9MhwMvYz8bElkQ8Jhl1aPWewilomyTh/8MNgBoZdv4BtehZfFhGMKmw6cwjs8eJPL22LC4fIiS+mzrhMRZUGfyhTSmcMxhJv/Hqk8eY8OtYc81H/X7jkOR5+gVJL8dxAOEUJ+h/zwPaO8oStF582dpWd8He61fxDh8HEbVuyKYIXNHZU7iFAyfTBikQ+Zy8aT8IfDLqOEbI2IOKyAOA4phOZTFsh3KcN8P2q8vBOb8s/fcgR2HDG/ic8cLt+IFXM+YtL7j14YSWb+iwx92MaEcynWsgM4J7ELQd5Z/aqEMz9gn3wl66CUcBi8AbRCr6mS0uO6pdFsrTEuyMP1znWezQiHwYtaGvLGY9kVxfVSZ5QzSnexltr3KxLOkbOR8hVl2Lj/pB7hOGeScHgfTugb2YejjHB4/pdP/BbWPZcr3V+2mw1qjHZJHYz8qwhn7Ym1cuqvB4+fPUbbTW3/k4STmJSM2nzUDTUSoVhYiEiK/jkCu8xM/PM+iDYzFktuF20cang5Kd7a3cp3/D9MfoyWE+dJHYvyL9dnGu6mc3yGOfC+oRqsaOR0fhtkhzgTlpk+Xoqd01rC+ZpGweyOsATTeZJdtnAqEOGEKzjkUAtDwlmQzQiHwScl59K6T1iBczyu62xKOAw+Bqk8Webifn5WbtesFJkoLSSc5Zv3IDe7aykNJpyj5y7IV5TBh8rvlSwceQ6zSg8bRKazCfq1QKFLTYuUZ8/QiQ/ppQGeKGcmGrZ4+Hw+Ki+VcNLBf5lwGLxYIHX1CUvdvqg7YZ44d80clm/dh/xs4WitG+qYVXtOtmh/yMmoaOkQTu6QlP/E5Zm3XNfsPCCZ+TyvQ8/icyDjfTzWvGOdOwwppBKdJmA8/e2ycRdmbdiRrjhTefHihJpjXaU8uYN1n4wLN+LklDNG6qIBUuZ8wGPrqYswd1OwyfzMiRMRngcRFc8fKIGlhMOY409Kl4mCrUdW2lzX2ZhwGLvpPd/nY1m4TWufOROEs2LrXrJwiHDo3Xm/14C56xTX0Tzf3egyayVyc97UT3h7wXoLjl+SLBxW/kPwPg1M+FMQcylNU3mZE4e1W7F+73FlK9YULBowRAz19Zps1fAnNrhN8LuyqISTPv7rhHMw4gre4Q7J5MHr/qlzj1nuL181Df62TkVemcYN9E+KQ5155IINFh0vM27VFqFEuEMWbjUSR+g5MovYu/dRud90STHS8/9Jo6+MsD74GKz4TDnuLCz8LKyklAqPfrncKL8aY1zw0OCon/SQSjis/LmTshVhKo/0pHoPlPzbGvFkpSpBZgjn+bOnmLjYB7m4bLh98Aj2LRLOJIV5+u87idJcrlqizATh8F4vcSI4v7usSE3WgznhwQjnS/HKthuF8Mtp2wsyQirhaPfhWNo2WX7rhl9pUKT88wTKXGq6OEllVKUnW5QUTyUcZfivEw5PuDbnlUm8EIA6dvE2o7Ff3l+THjras0ktf7CJ4m2zYO/NfbKeyrIi4TkQsjIaUcdQqoTMgY/WEfNBpFjYcgrNwMWV8DAZ1Un5iQ9dsTJhAmGrTYmw0maSqN0HVk0Hw2vvCTlVZQg6HYGCrIx4ZVVqupSmbh4ZCY0s3+s5RbEbkj/Alofz4xWBVF9Ldir7YmcyKej205dI1qBYlUdC9TZxsfIPsDUaT+XM7kdKo+4oZ8V1zR9g+5RIVdRrzd4YYsFH35zXB4q2IIiO6/b3Hug0ZT6eKPziJ+lgDOM2xZs55ZG/yXowKfK9HK9OP0xfE4BnFpxEYUvWvvZoKaM0lQifpl27N34holdKOGPd5A+wUbsq13+GIsJh7DwZRoRKgycmOSZZ3pzcfuy/4ANsKuFkGfiTtiWo0RRuPQpN7ZRtHAs6GY5fhzjgs56T0WXmCtx5oPzojiPnL6DGUEdUG2SPr/rNwNLtr75Ka/f5iyjXayqq0ejsx/7TsXmv6TOfdBEdn4DJSzfhu8EOKPz3RBTpYq1ICvPGVCLMDlM9sONUBJ4bHAOTEUKI0D/qboMif403mb4SKdxhHL4hy8rwOBdzOBYVjS8GOeArLnOSzceUn992/U4COtgvpXgOqEb19jX98jlbStHTZQ1K0Ki3GD13Z+eVeKDwo3FX4uLxh7U7PiPrtSrJTAvyTE55igkrNuOrAXaoNmwmqva2xTi3dYo+3KYFu5XnbQoSA6IyvWyp3hW2ESLJEtQ+/iByXeQXLEjbEjht3IXCbUaiiNL8TEhh6s8tZ65UTDh8ZNJX9I5fDrRHS9IBlnxJdz0NuL4RbcMJVYisqk+Yhzidz56ohKMDlXB4EvA5omLuIPTqTVxXOA/DSvb2/QeIuXsfDy3Y6Mngb2uwGyyO4scmJOJJJvaVGIKf5wY1cpHmvfvCglGKOHqGsOuxCFcoYddicCn2Do0CLVMkWnB5hZEFxqcTmEpfiYRR3IsxtxXvyeERawyVT6wsSRZ+2/8+kQTHk+rsgWKiY/B3e8LIWmG5QfWu9Bs+T2ngE5f4UHrue4liH5jiz5UTWGly+9I+M69ks+QEcy04X65vrndTdWFa4qh/PJRTsAy81yo0+uYrtY/Q6FhxvpuSsuYy5bPeuKxiqazuJCZZvJWHy5hJhuuK60z3PDeVcHSgEo4KFSpUZB1UwtGBSjgqVKhQkXVQCUcHKuGoUKFCRdZBJRwdqISjQoUKFVkHlXB0oBKOChUqVGQdVMLRgUo4KlSoUJF1UAlHByrhqFChQkXWQSUcHaiEo0KFChVZB5VwdKASjgoVKlRkHVTC0YFKOCpUqFCRdVAJRwcq4ahQoUJF1kElHB2ohKNChQoVWQeVcHSgEo4KFSpUZB1UwtGBSjgq/sl4afG5vipUvFmohKOD/xLhJDxOwKbzm3Dk2hE5xDTuPrqLrRFbceyG/mdxHz9/jD2X9sDnlA/iHpj/pHLK8xTsiNyBXVG78Oxl2nc1Up6lIORSCEKuhOAF/UtKSYL/eX/4nvNF8hNlnxNIeJQA/1B/bAnfItK4lnhN/O19xhtep70kOWMgFLbuxDqcizsnpyLhfNx5bDy7ET5nfeB91tu0ULpcZhfumf6m/aGbh9LyNsxXztv3vC+uJBp/0TT0digCwgNwK+mW+Pvx08fYGrYVXqekeCzrT6/HpnOb4HPOJzWMxfOUJ3ZG7cTTF0+x7+o+eJ/yTk3HHIKvBsPztCduJir/Rn78o3gERARgw5kNemXCZXbm9hn5LssR8zBG1Nums5v0y9tAuH6O3jwqx0rDwycPEXwxGBvPbNQrF0PxPOmJvVf3yrEk3H9yHzsv7dQrZyE6dcay8/JOPHqu/xkGLu/D0Yfhc5rqQ+feVJHT4Prxj/BH8jPT7fpqwlVRhlwf2vu3RWxD8lPT9z9/+RxHbhyB71lfUSamykoI1Y1fmB8ephh/GiEmKQabwzYbPasQ3XcgOR13Wo6V1i657z96Zv6zFM/p386LO8V7sK7QQiUcHfyXCOdU3ClYTbdCS8+WcohpnIs9h3KzyqGbTzc5RMLNBzfx4/wfoRmvQYv1LXA76bZ8RR+x92NRzrkcfl3+qyhfLW49uIUf3H5AjWU1RMdiAuru1x2aSRq4HHaR70ofMw/OhGaiBt23dBej+1WnViHvtLzINzUf3rV7F8VnFEdxOwOhsEKTC2H6welyKhIcDjhAY0t1NkWDHLY5TMuUHOL56q2uh9sP9d/32PXjeM/1PeScnBPv2lPeBvmWsCuBYjOKifjNvJvh/uP7ckwJYwPHinj7o/eLv2MexKDmopooOrWo9B6y5JyWE7mm50p9Fxa+p+HahqIMPE57IMekHGjp1RL3Ht0TaRlix6Ud0EzToMbiGoi+Fy2Hpg9WliN2jJDKaLJ+GWlsNPhk/ic4Epf+4MUcgi8H492Z7xqlayicz8dzP8bB6INyTAkRcRH4zPUzWFlbocSMEnrllSrTi6OwbWG029xOjsXfTXqOGSEzRD8tMK1AWpthkeuNwwpMLSDumXVglhxTQuLjRDRZ20S0QY5jlLecBtfP/1b9D/eeGNcHt4PWnq2ldsP58/3TikIzVYPRgaPx6ImxUn/y/Ak6buoIjXUG5UVtmet5eNBwPH2e9r2mlKcp6L25j4hfaHqh1HxTRX7+YtOLodi0Yhi3c5wckwYdyfGoNLsSflz4I+KSzA80eXD5/fLv8d7M9xCdmNbGVMLRwX+JcKLuRaGwY2G08Gohh5jG7YTbqOZeDX0D+sohEngEXWtFLfGOrAi6+HUxaZnEJsTiE5dP0HhdYz3CufPgDv7n/j/UWF4D91Mk5Rt5NxKlXErhfZf3xag3PYTFh6Gka0l8OudTxD2UGv7yE8vxjt07GLxtsBjxbo3calI2RZCVclffSplzcA5yT8uN7pu7Y+HJhXA/5g63Y26p4n7cHR4nPNBqQysUciyEoCtBckwJDsGOyGObB9ZB1gi+ZJx3YFQgtkduR80VNVHcvjhOxZySY0oYFzgO7zu9L0aujCcvnmDflX3YErFFxA+6GATvUG9Uml8J1RZVg3+4vxhB8rXNEZtx4NoBQTisRAfvGCyUycDAgSItXfBourx7eRScVRBn4pRbJZcSLuGTOZ/gu4XfYfGpxaIsuIy4rLoH0EBhjAaT9k6S77YMey/vRXGH4qi5uibmH58vRLfsWTxOemB08GjkdciLSXv084mMi0TF2RXReG1j7Lq4C9svbNcre634hfvh2M00S/3R00dotKoRPnL9CKvPrBZxDeOw5eh53hNFHIvgtyW/CYtdCyacOqvqiP4REBaQWh+GwvVz6PohvHhp/ME37/PeyDM9D4bvGC7qOPBCoIjD/SW3TW74RvrKd6aByaPDxg7IY5cHNnttsOzMMqPyWnBiAWYemomyc8viPZf3hKdCixsJN/DFnKqotrAafEN9xTsaPjNLQGQAtkRuQeidUDkmcC/5Hj53+Ry/LP0Fd5LvyKHGYOuvkVcjlJldRiUcc/gvEQ67hYo4FUGr9a3kENOIS4gTHapfQD85RAITzo8eP6Ll+pZo7d1ajKZsQmzkq2lgwinvWt4k4fw8/2ehgLWEw5i2d5oY6Y4MHimHGIOV6sBtA4V1xYpICyacwjMKY8WpFXKIcrgedEXeqXnhG27cwXXBHTmXYy74RfnJIRJm7puJ9x3ex+W7l+UQ0zgdcxpuR9yMLMLxO8aj9MzSqYRjCg+fPsT/Fv8PdVfWFW4Vc0h6koRaq2kwQHUy/+R8OVQKb+PVRgwQPM6klZsScP9lwvnL+y85JA08UGALbffl3XKIZdh7Za8YaY/ZOUYOMY3wu+Eo5lLMqG0w4VRwroCJuyfKIcrA7qGGKxuiyaomQAYf//Q674UN4Rvw7EWaW5gJp9byWmi1Mv0+ZA78dc0um7rg41kfGw2wQq6GIM+0POjq31UvT4YgHO8OKO5UXI8MDMHp111TF2Wcy+De4zTrigmg8pzKGOI/RA5RDiacqq5V8fuy3/VIzBBMrk3WN0FZl7L/HsLxPLlOTv31gEeVKuHoIz3CqeZWDcO2DRN1+/WirwVRGCp7Swnn9qPb+Hbxt8IKOHD9gByqjwM3DiC/XX4x4uR5BS20hLP4xGI5RDm0hOMd5i2HmIbbcTdYOVjBN0qfmAThOL6PqLtRcohlUEI47ML4YdEPwrLULTNTOBZzDCWdS4rR8/5r+4X1M2z3MOHSG7xlMF6+sGyBQUJyAmqurImcM3LCNsRWT4G9KphwCk8vjFE7R8khphEaH4pirsUwevdoOUSClnDG7EqfsAzBhNNoZSPUX1YfKY/TLBelYMKpvaI2mixvgqdPLP/EeNidMGHVDtgyQA5JQ+KTRPyx8g+UdymPy/f0BzG6hHM85rgcagwelNRZW8eIcHius8qcKhjoZ2wBZ4RUwln+u5FbWBdMduxq/9DlQ1xNvCqH/oMJpwARzvpTnnLqrwcv8QQdfNuphKOD9AjnW/dv0dW7q/ibFVzZ2WXxrtO7wievhaWEw/CN8BUuoRbeLYS/WRdsqtdfWx/5pueDT7iPHCph5cmVKGhXEE02NIHNARtM3DdRTybsnYCACwHy3fqwxMLJ6ZDTyMJxDnFGXtu8Yj7JVN4s4/eOx4zDM4Q70BCvm3AYy08vR27r3Ph12a8YGzJW+PP/WPWHxWTBI9SRgSPx5fwvUdK+pHjPn5f/DO9wbzx/nmZphd8JR3B0sJiPswRKLZzzt8+jiEsRjAgeIYdIuBB3AVVcq+DHpT+Kcrbeb61f7nvGwzPMU28eg8HP2WxtM5R2LC3STK/e2FLUHdwwmHAarmmIT2d/Ktx9hvE53uyjsxH7MFaOoY/5J+Yjh00O7Lm8Rw7Rx7wj84SVajiI4/do791eEA6XuTm8ePECtdfURulZpfWsES3hDPAzJrqMcC/pnuj3ZeeVxfDg4SbLjMuf29tHcz8S7so3YuEkpzxBYlLahNdrJRySXE558btjX3S1XYmOtoteWTpNXoQ+rkvx6+J6yOlEeWQB4RDpizJ58kzfRH4beF2E08W7ixwCsRKn0NRCqOBWAeHxUkfgRQOWEg5PirbyaYW8NsYE4BtGZDRBg9YbWxu5GlafWo0CjgXEKF4z1kDGkIzSoK+//lyUFnMPzRXWwO+rf0e3nd3wd+DfQrrs6IIeu3qgZ1BP9NjZQ8yfFLMvhv1XpMl9LSJuR+Az98+kfFgM89fKOA0arm6I+If6yisrCIfLcdC2QcLyZMVVanYp7IveJ19VDvuD9mKxAFsQ+y/vx+bwzaixqoZYRNHLr5fo24zOfp1R2L5whvNvhmDC4ZF+FY8q6BLYRZS5tvy77+yOnrt6ivKvva42rGythDWpCyacr9y+kuqdyteozIdrxFxhYkqiHEMCu308jnsgr11e0/G0wvVJZThlzxQ5pgQmHJ4DFeVLbdIoHrW3XLa5xPsZgt2bzdc1FzqihV8L8X783lrpFdwLtb1ri3Jv79NeuJG1YMLpvKmzaK8t/Fugd3BvdA7sLMqr646uorx6B/VG281tUcypGD7y+EhvhdyrEs7PC38WixrYpW30zlrh8rTRoMK8CiI/LSwjHNKYT8h0vHr7LsKvxeL85RsIPhmOZYEHMG1NAPrOWYtm0xfj51GzUW2wI1buOixHfM2Ew4TglAuabnWg+bk/NDV6vrr80gM5m/dFpVk/I/dsSj+LLJyxS33x3WAH/DLGFa3slmKYhzdcNgXDK+QETkZdE+V65VY8HiQ/xksaoWQVXivhaL0z9OtxzEMot++XfS9GhIlJifjU9VOLCIfBk+rvObyHHxb+kLraihcHfLvwWxSZWQQn406KMF2sOLEChewKYdSOUTgQfcBYrh5IVY6GEIRjlwcFZhZAabfSKOVWCmXcyiDfzHyi47B1UHxucdGBbINtTa4euphwMTUfo7xl+dPzT5SdWVYsw9ZFVhAOg5e/f7H4C6G43I+4y6GWYfjO4eLZdJeSs5XEZfburHfF3M7cg3NRa20tofR5hZ0lYIX8wewPkMshF0rNLSXKv7R7aRR1LSraEku+2flQzq0cOnl3wpW7+nXILrVKLpXQ0aejyTLn+uBl54YDFAZbzLyk22Q8WbaGbxUrNessq6O3FJgJp8GqBqjoWhE+YT7GcSnfw9cOm3Q9HYs7hgJOBZDLnvQY6wrWN4ZCei6HXQ4UdSoqFm1owYTT1a+rUPqFXQvjA/cPRHvlX6Ebub1SmmXdyuI7j++w9OxSOaaEVyKc5Hv4eu7X+MrjK+EtMHpnWfZc2YMaK2oIC0eRS+124kOcIEI5FHoJvgdOw8UnCGPne6LTNA98McQRRTqOR+GWI1Cg2TDkajoEmkY0kmo4EJr6RAC1+0BTszecN+6SU8siwunfBJqm46FpNeLVpdlwlOg0AlVm/4rczpQ+V7ipvC0RE4TTdsYSieDq9pXKqtFA5GgyBHmaDkWhFsNFuX42yAGtrOdhxJzVcPIKxLrgozgYdhnhN24hKRO+ZlPIEsKRMWgHtQVSPLzi6/Kdy6jqVhWN1jWyiHAY7KZg15rjIUfxt+0+WzGSnBBs2k35OhYNzD40GxfvXURkfKRos3ui9+BLjy8F4YzaM0rMMenuJ0qFwikRuz12+MDpA5y7pb8PKKsIh1FnUx3kdsgtlF9mMCZ4jCD/PReNXT+80q25V3MUtSdysCNisMsn9kdZAiacojOKiqW+EfERom3yKkJ2F3Xb1E0o1nob6okwU3s/mHDKO5eHdbC1HPL68dOin8Qycl64oQUTDi/g+M79O7NL0M1hYtBEFJxeEB6HPXDy5kkcvHbQSHjQNWzHMGHVuR12k2NKhMOLN4o4FoHfBT9BIFxul+5dgl+En3BtF3EogtXnVosBh2Hb1BLOQP/MzeF84fqFsBh1V+yZQvMNzTNeNMDPtn7/KdQc6Yycf46Epg4pxtqycmwwQJLGg0nRE8mwNGMZCk3zYdC0IGk5XPw/BynSOb5pq1ayjHCajJPyfFVpOuyNEE7nmSskYuY8iWBEmTWn8uMy1JZpEyrfBkzeVNZ1+0l1QL+l/7ZGG9uFsF4dgM2HzuD2PeVKxxARdyPwjsM7aL+xvRxiGinJKaJD9dnSRw6RkB7h8HLTv3z/EiZ3R9+OqOhWEc28mllMODxS/mLhF2Jl0tYLW1HVvSrKuJQRm9ZMQUs47FqzFFrCMZwXYrBS/cDlA5RwKIETsSfkUH34h/nDZoeN2c16WszaPwtlnMq8UcKp5VMLuR1zY/9VfTegUowMGikI50S06Xdn8JLgKouqCGtkfMh4i9xqTDi8aGD0Tv3FAAyee2ju3VwMNHRX3OlCSzg2u41XSaYHtm7YIl92fJkcYh5MONUXVzdJON+7f2/S4jWHB08e4EPXD/HDsh+E2zM9RCdE4z3n94S1oM2DCYcXDZRwKqG3KVOLjWEbYTXJCr+s+MVkO4m+L61SG+Q3SA5RDu2igd+W/aZoWXSGhLMu8BDy1WKSISuFlZ+hYlYiMuHM9UsbEUWTWfUFN0gaBUmE8Qoyk8UqSwjnc5dfJJcaE4apvC0RIteJO/QJ5+9ZOoRjiTA5NSbLgeuFyKdQm5H4vb8dhrl5Ieqm6U2X6YGVV+V5lfHB3A/QM1jykRsK+5HZD8wT8bxPRBdMOF/P+xqdNnQyObpnsqi+qrq0UZCsA96/Ykg4vPGz+rLq6SrPVedWib0XJZ1KosiMIlh0fJF8xRhMOPlm5MNP634y+T4sPB/Dfu7tV7fLsSTMPjAbVpOtxPJXU9gUvgn5Z+RHJbdKOBWrv4eGYR9iLzYA1l9VXyx1NSdfun+JCi4VcOG2/j6gMYFkRTi+h8PXzVshXGfVPKqJzbKWEE51b6oHe43JuQQlsNtvJzYS1l9fX7QJ3fLsFdRLzCEM3TcUFZdURGGHwihoX1Dsb1G6qTTkcgjy2+bH0MChcog+2LKpOr8qikwvIvbEGIIJp6JLRXy+9HOzbZmF693jXNpycF400GhNI+Sfnh+8r8VUfbF02thJ9IGWa1saLYtusLqBmLfqtK2T2by77uyKUftHCaJh8GkTVtOsMDlksvg7I7TxboOCDgXFXh4GE07b9W1RyKEQjsYYn7zAzzhh9wThWqu7ti7iH+vPF8YkxqDa/Goo51IO3Xd0N/vc3Fd67eqFgKi0hTZMOJVnV8ZPS37KkHDqr6uPUs6l0iec4xFX0dtuCQq2GSWNvE0pv4xEJpx5OoRzLfEKKrOFY0dE4Zjz1cSJJc9rJ5x3iXA+dvoOVrNewzOyzLCCtQHhdJm1MnOEoxV2//EvDwbY8qnZCx92HId9Z00ft2IOvGyR97zkdcwrLDEmBXPysfvH4H0BuohNisU3Ht+gh08Pk4TD4NVYPMnOGyLbbGxjRDg1FtYQCjo95clmeyefTkKZt/BsYfKYDi3WnF6DYjOLSYMaE+8hhCc7qSNOOqy/edDlgIuwjkxZOFrMOz4PuablQmuf1kYT0FfvX8W3q7+V0jeVLwtdyz09t3AJPnmmP7K1CbLBxy4fmzy6RQsm+V+W/JJhmRmioW9DFHIqJHzrmcGpW6dQ2aOy6XfSCrUhbkszDs4QpyV08+6Gw1eUufD4uUo5lsLYoLFyiDF4KXw513Ko4F4BZ2+dlUMlRN6KFG5f0Y7Ta8tU7w18G8ixpD7gFeqF0q6lpXozV3c0aCruUtyobTDhtPZqjVxTc6Wf92Rp/u9mknSMUFv/tnjf9X1E3okUf2cE3nzJpx2MDpIsQDGH49tVuM7MWdxMOl22dBEnGPCA4YXORiNBSCETRFsUz2fuueW+MiIgbVXg3eS7+HLel6i1spY4dcAcnr58igbrGuBj148zXqUWdCYSZdqNkdw6rQwUnhJhN1GzoWgyeQGcPAPhsGIzRi1aifxD/iSSaAzNgKavKEQ0A+m3U3fKR1bArypkQRRsNwL5+rajtF/TM9K71rIdB7vl/rBb4Q/n9YH4frCj5DIz9QyZkBxEPL8MccDZqLSJOaVgc54bLDdo3g29OdJAKIxdWbqTflowEWy/uF24gLjjmgO7jjaGbsThm4f1Nisy+fDIlt08GbkVWJn7hPpkuMflxoMb2Bq1VayWM3oXrdA78XWe4NcFH9Wz++pus0tYteDl33zKQEKK8TzF3ZS7Yl/E0dijOBZ7zEiOxByRJq9NzAHxnNGOizvS3UzHZRZ0KUicP8dKRymOxx4X5WK4rNcS3Hh4A9uitpkuW7ntnIw9mbqais83047oMwLft+/aPlEG6R1Aym7g7Ze2i/agC1b8XC7p1jsJz28YKmjOjwdPJ+JOmK+32CO4nnRdjpEGtpCYLFPzNdWHSMSpEJd2IuWFNOex68ouBF0NSnfzri543opXa/KgT3taAa8C5XPh0tsLw+fEcRw+hcKwzfH5Ztwe/SPp2c08N4fz6Qxn49IInvsqt9O90XuFFWMOTHAHbxwUCwu4LWhhknCW7DqMH3tPRR5Watp5mcwILyTgUbiYg+hPo/LRJERkr0uajzSd76tIM7LsTOWVWWlMhKgtA5bXSDa84KBsxwk4FmF65ZUKFSpUZCeYJBzGvtMRKNlx/OtVkKq8XmkwAJ/3tMXV2MyPXFWoUKHiTUGPcJKePMXZ6BhsCjmG/q5rkJdXqfHqKVPKTpW3Lw0HovzfE3EuE+40FSpUqHjTSCWcJ0+foYW1O3I2GYScvNSZV0S9ijtNlayXxoPxbptR2HVEfxJVhQoVKrIjUgkn+fETTHT3RnFeBdWECEclm+wrXDe876nBQBSkwcH2w5n/+JUKFSpUvCkYzeE0t5kvbe40pehUeftCZJOj6VDJAm00EJ0dl+Puw/Q3G6pQoUJFdoAe4Tx78QLdnVdBU6+faWWnytsVsmYKtRoOp7UBuBIXj+t3EvAoE8eiq1ChQsXbgJGFM8snGJo/eppWeP8V4b1H6YmpOG9Cmg9FbrJwes9ejaBTEbgYY/kJAypUqFDxtmBEOJGxd1CpzzTpCJV/wzwOv4N2zoNPTuBl3sIdJQu7D/mcOF3hs+PMCe+lMbyfzzxrNFBKT/ecOc4zK8qwHuVZqzc+6DQBf9stwaHzmfvolwoVKlS8SRgRDmPf+Yv4rJetdKIxK2ftmWriZGUD5ZedhZW9fIq1FZFCroaDkL/DOJToZoNvBzqg2kB7NJ4wD+2nLkRb2wVoPWUButotxmi3dRg73wtj3PWFwwbNXom2UxegDd3LcdpN9UBLG3f8NHwmvhvkgMpE1vk7T0ChtqORv/EQ5G02FFZMPKaeL7PCdcBnqxF5Fmg9CvZrt+KpzoewVKhQoSI7wiThMK7H34f1Ul9U7TUF7/BeHJ7X+aNX2ghfS0LZVUgZl+48EaM9NsA75DjOXLqG+ISHiH/4CAmPUpDy5CkeK5n/4GNbdOQFKfZHj1P0JInS48853Lx7H9fuJCAy7o74rs2uo+eIqDxRqt1oybrSfgrhdZA21ckX/aZjxCIfnLx8Pd3jZVSoUKEiO8As4Whxg5Tnht1H0cV5FVqOd0PNEc74svdUFKORtaZFNt4USpZZ+Z5T4Oq/Bz6HzyLgRDi2nYrA1pPh2Er/33IiTMjm42HwPx4K/2Oh2HU2CgcjruD4hWgijsx/s/18dCzGLPBCg9Gz8F6n8dB+H0iQNX9ugAmb9zqZem4LhPdL5WowEBPIwlGhQoWK7I4MCccU4u8/wIA5a6V5i9ftLnoV0c7XaIXna1jZ1yZlX4uEP3zGCyJ+70HSPU1+6QrNT3/TPX2Qo9EgFCDrrXK7cWg+bi7OkKViKS7cvA2PLSEYsmQTeszzRM/Zq9HVYTlaTnRD7dGz8fuIWSj01zjJ6jH1Hkql8WDhstuwz/x3SlSoUKEiu0Ax4QSficSU1QEYsMgHLe2X4rNeUyWFyXMJppTh6xKt+4kJhF177MoTE/8k8vyMpqE88S8m7vnvgbCia7lYKE7utqNRuPMEVO43HRX7TsNvg+zQbIwz6o9xQcOxLuhguwAdpy9Ce/rtTO/Wf9ZyDHZagVnrd+JmgrITb9PHS7x48QJJyY8QeT0OJ8iCWrH7GD7saiPNkRm+sxLhsm/QH71d1ry2r4CqUKFCRVZCMeF0nbtOcguxguf5nMwqSlPCpKJLLNrVZLyCTLiheN6oH6yIbArSPSXajEJJshA+7DoJFftMxRcD7fHj+LnC7Td+sQ/mbgjEhj3HEXQqHHvPX8SBiCvic9lseZyh3+u37+L+gyTcI0l+lCLI4E2B53kWb92P6mQ95f1zhHILkctF+38iGp5Py0nkunZX5j4brEKFChVvGhkSDk9FewUfw7e9p0nzDyxsWegqwMyIlmCaysTC6TKR8ZJfIpfCbUaiYo8pYs6o8RQPDJq3DnaeRCTBhxF89AyOhF3ChRu3cJ+shlcFr/C69zAZV2Lv4NKNOIRevIbzUVdxLDQKW4+cg//hc9h8+Gyq+JFsP3oeJ8Iu4mzkFZyJuGxW+Prhc1EiDsddsu0A+rt5oQhZXYJUDcvFnHCZs2uQLLZfR7ug6ZSFsFmzFTF3Lft+vAoVKlS8LSiycFYFHsLPRDjV+k9H9SEO+J4sirz8RVAlpKO1WNgdJva/yBYSW0tEMkU6TcDPlGZbWw/0mueJ6et3UH4HsP34eZy7ehNJKel/nCuz8Dl0Gr1mLEPr8W6oN3I2fhrsiMo9p6BS90ko13Esyv01FmXajUahViPwzp8jUYiltSQFSYqRlOswBp92Go9POo0zK+Xp+gd0X0E5Df4SqnD/KZ2/ofLLTff2c10DW69ADHBbj3NkpalQoULFPw2KXWrsCoomCyDm9l30XbA+bXk0z59ol0hryYX/FoqVrjUciJxENPlI2X7ceQL+N8genZ1WwH5doLAcDkReFS6uZLJU3qRrax9ZJ4Nc1+L3wU6o1GUSPiSLIx8/P1sSWktOWF30jvyu2oUHdfqkhQtrjIQtNHY1clwWJla2XrRzTfzLZcKilGh0JCfFqTPaGdsOnRHzNXyytwoVKlT806CYcLTg/R4jl/vhy78noUIXa1TsaoOCvHBAzLP0Rw5StmwVfPjXeHwzwB6956zFii0hCDx2HhHXYnH/4aNstUnxMSnvxOTH4myyveejsJWe03fPUSyjZ7ZbE4CBbl5oNG0Rvhk2E9/0moYq3afgE3rv0u3HoiiRaH5697xNB4v3FqRTn8iISYhJiX85nImGyyh1H04m9uOQVch5Xrud+eXaKlSoUPE2YTHhaMGkcTM+QQhPXDedMh9dZ66Eo+c2bNxzDOev3MTTZ/++3e8JSY9wKeY2joZexJZDp7Ga3n2pXzAc1m7FwHme6OK0HPUnL0CNYbPwVS9blCWrLhdbTmwl/doNmuo9ZUtJayHK1pAgpXRclERcFQfa49b9tO+Dq1ChQsU/CZkmHEM8IwLi06b/63j2/IU4wfne/Qe4ePMWjoRfhu/hc1iw4xDcN+3GpGX+6OeyFq1tF6LWKGf82McW5cliKqpdRCAsowGSK45XsLEVxL+1++JXsrLiHyTJOalQoULFPwuvjXBUWIYnz57hQfIjxCckCovpUNglbDl6HmuCjsB6uR9a2HqgygA7YfUUaDcGzSa5Yd+5KDxXSV2FChX/SAD/BwyFXI4NBakdAAAAAElFTkSuQmCC;" vertex="1" parent="1">
          <mxGeometry x="290" y="60" width="214.03" height="40" as="geometry" />
        </mxCell>
        <mxCell id="PJQUIRJuqjllULaBDUKF-5" value="Earn-Saka" style="ellipse;whiteSpace=wrap;html=1;fillColor=#d5e8d4;strokeColor=#82b366;" vertex="1" parent="1">
          <mxGeometry x="420" y="270" width="120" height="80" as="geometry" />
        </mxCell>
        <mxCell id="PJQUIRJuqjllULaBDUKF-6" value="Sense-Saka" style="ellipse;whiteSpace=wrap;html=1;fillColor=#d5e8d4;strokeColor=#82b366;" vertex="1" parent="1">
          <mxGeometry x="390" y="170" width="120" height="80" as="geometry" />
        </mxCell>
        <mxCell id="PJQUIRJuqjllULaBDUKF-8" value="&lt;br&gt;&lt;span style=&quot;color: rgb(0, 0, 0); font-family: Helvetica; font-size: 12px; font-style: normal; font-variant-ligatures: normal; font-variant-caps: normal; font-weight: 400; letter-spacing: normal; orphans: 2; text-align: center; text-indent: 0px; text-transform: none; widows: 2; word-spacing: 0px; -webkit-text-stroke-width: 0px; background-color: rgb(251, 251, 251); text-decoration-thickness: initial; text-decoration-style: initial; text-decoration-color: initial; float: none; display: inline !important;&quot;&gt;Rice&lt;/span&gt;&lt;br style=&quot;border-color: var(--border-color); color: rgb(0, 0, 0); font-family: Helvetica; font-size: 12px; font-style: normal; font-variant-ligatures: normal; font-variant-caps: normal; font-weight: 400; letter-spacing: normal; orphans: 2; text-align: center; text-indent: 0px; text-transform: none; widows: 2; word-spacing: 0px; -webkit-text-stroke-width: 0px; background-color: rgb(251, 251, 251); text-decoration-thickness: initial; text-decoration-style: initial; text-decoration-color: initial;&quot;&gt;&lt;span style=&quot;color: rgb(0, 0, 0); font-family: Helvetica; font-size: 12px; font-style: normal; font-variant-ligatures: normal; font-variant-caps: normal; font-weight: 400; letter-spacing: normal; orphans: 2; text-indent: 0px; text-transform: none; widows: 2; word-spacing: 0px; -webkit-text-stroke-width: 0px; background-color: rgb(251, 251, 251); text-decoration-thickness: initial; text-decoration-style: initial; text-decoration-color: initial; float: none; display: inline !important;&quot;&gt;Mango&amp;nbsp;&lt;/span&gt;&lt;br style=&quot;border-color: var(--border-color); color: rgb(0, 0, 0); font-family: Helvetica; font-size: 12px; font-style: normal; font-variant-ligatures: normal; font-variant-caps: normal; font-weight: 400; letter-spacing: normal; orphans: 2; text-indent: 0px; text-transform: none; widows: 2; word-spacing: 0px; -webkit-text-stroke-width: 0px; background-color: rgb(251, 251, 251); text-decoration-thickness: initial; text-decoration-style: initial; text-decoration-color: initial;&quot;&gt;&lt;span style=&quot;color: rgb(0, 0, 0); font-family: Helvetica; font-size: 12px; font-style: normal; font-variant-ligatures: normal; font-variant-caps: normal; font-weight: 400; letter-spacing: normal; orphans: 2; text-indent: 0px; text-transform: none; widows: 2; word-spacing: 0px; -webkit-text-stroke-width: 0px; background-color: rgb(251, 251, 251); text-decoration-thickness: initial; text-decoration-style: initial; text-decoration-color: initial; float: none; display: inline !important;&quot;&gt;Corn&lt;br&gt;&lt;br&gt;&lt;/span&gt;" style="whiteSpace=wrap;html=1;aspect=fixed;" vertex="1" parent="1">
          <mxGeometry x="250" y="270" width="60" height="60" as="geometry" />
        </mxCell>
      </root>
    </mxGraphModel>
  </diagram>
</mxfile>
